<svg width="66" height="66" viewBox="0 0 66 66" fill="none" xmlns="http://www.w3.org/2000/svg">
<rect width="66" height="66" fill="white"/>
<path fill-rule="evenodd" clip-rule="evenodd" d="M33 6C18.0883 6 6 18.0883 6 33C6 47.9117 18.0883 60 33 60C47.9117 60 60 47.9117 60 33C60 18.0883 47.9117 6 33 6ZM2 33C2 15.8792 15.8792 2 33 2C50.1208 2 64 15.8792 64 33C64 50.1208 50.1208 64 33 64C15.8792 64 2 50.1208 2 33Z" fill="#666666"/>
<path fill-rule="evenodd" clip-rule="evenodd" d="M45.8498 48.8288C46.1217 48.942 46.4133 49.0002 46.7078 48.9999C47.1478 48.9981 47.5775 48.8661 47.9427 48.6202C48.308 48.3744 48.5926 48.0259 48.7607 47.6184C48.9289 47.2109 48.973 46.7628 48.8877 46.3302C48.8024 45.8977 48.5913 45.5 48.2811 45.1873L36.1743 33.0555L48.2697 20.9351C48.4934 20.7313 48.6734 20.4841 48.7988 20.2085C48.9242 19.9328 48.9925 19.6345 48.9994 19.3317C49.0063 19.0288 48.9517 18.7277 48.839 18.4467C48.7262 18.1656 48.5577 17.9104 48.3435 17.6965C48.1294 17.4827 47.8741 17.3147 47.5932 17.2027C47.3124 17.0907 47.0117 17.0372 46.7095 17.0452C46.4073 17.0532 46.1099 17.1225 45.8353 17.2491C45.5606 17.3758 45.3146 17.5571 45.112 17.782L33.0147 29.8894L20.888 17.7375C20.6854 17.5127 20.4393 17.3316 20.1647 17.205C19.8901 17.0783 19.5927 17.0088 19.2905 17.0008C18.9883 16.9928 18.6876 17.0463 18.4067 17.1583C18.1258 17.2703 17.8706 17.4383 17.6564 17.6521C17.4423 17.8659 17.2737 18.1212 17.161 18.4022C17.0483 18.6833 16.9937 18.9844 17.0006 19.2872C17.0075 19.5901 17.0757 19.8884 17.2011 20.164C17.3266 20.4397 17.5066 20.6869 17.7302 20.8907L29.8606 33.0461L17.73 45.1869C17.4198 45.4996 17.2088 45.8973 17.1234 46.3299C17.0381 46.7624 17.0822 47.2106 17.2504 47.6181C17.4185 48.0255 17.7031 48.374 18.0684 48.6199C18.4336 48.8657 18.8633 48.9978 19.3033 48.9996C19.8879 49.009 20.4528 48.7884 20.8766 48.3849L33.0221 36.2142L45.1234 48.3404C45.331 48.5497 45.5779 48.7156 45.8498 48.8288Z" fill="#666666"/>
</svg>
