<svg width="66" height="66" viewBox="0 0 66 66" fill="none" xmlns="http://www.w3.org/2000/svg">
<rect width="66" height="66" fill="white"/>
<path d="M62 33C62 49.0163 49.0163 62 33 62C16.9837 62 4 49.0163 4 33C4 16.9837 16.9837 4 33 4C49.0163 4 62 16.9837 62 33Z" stroke="#666666" stroke-width="4"/>
<path fill-rule="evenodd" clip-rule="evenodd" d="M24.1451 41.2344C25.2741 41.5533 26.4466 41.7241 27.6318 41.7382C30.0674 41.6171 32.461 41.0687 34.6986 40.1194L34.7959 40.0859C38.2525 38.8949 41.0008 37.948 44.9186 40.1194C45.2315 40.2963 45.5865 40.3893 45.9477 40.3889C46.309 40.3886 46.6639 40.2949 46.9764 40.1175C47.2889 39.94 47.5481 39.6852 47.7278 39.3784C47.9076 39.0716 48.0014 38.7237 48 38.3701V20.5647C48.0014 20.2104 47.9072 19.8621 47.7268 19.5549C47.5464 19.2477 47.2863 18.9925 46.9728 18.8153C41.375 15.7188 37.1021 17.2369 33.3222 18.5841L33.2534 18.6078C29.7834 19.8032 27.0307 20.7515 23.1022 18.5841C22.7893 18.4073 22.4343 18.3143 22.073 18.3146C21.7117 18.315 21.3569 18.4087 21.0444 18.5861C20.7318 18.7635 20.4727 19.0186 20.2929 19.3254C20.1132 19.6322 20.0193 19.9798 20.0208 20.3335V20.3533C20.007 20.4492 20 20.5464 20 20.6444V49.9385C20 50.4852 20.2184 51.0097 20.607 51.3963C20.9957 51.7829 21.5229 52 22.0725 52C22.6222 52 23.1494 51.7829 23.538 51.3963C23.9267 51.0097 24.1451 50.4852 24.1451 49.9385V41.2344ZM24.1451 36.9481C27.5474 38.4139 30.1185 37.5014 33.2914 36.3694C36.4755 35.2333 39.7315 34.0871 43.8812 35.3036V21.7913C40.4672 20.2961 37.8924 21.2148 34.7166 22.3479L34.6986 22.3543C31.5237 23.4871 28.2774 24.6299 24.1451 23.4307V36.9481Z" fill="#666666"/>
</svg>
