<svg width="66" height="66" viewBox="0 0 66 66" fill="none" xmlns="http://www.w3.org/2000/svg">
<rect width="66" height="66" fill="white"/>
<path fill-rule="evenodd" clip-rule="evenodd" d="M33 6C18.0883 6 6 18.0883 6 33C6 47.9117 18.0883 60 33 60C47.9117 60 60 47.9117 60 33C60 18.0883 47.9117 6 33 6ZM2 33C2 15.8792 15.8792 2 33 2C50.1208 2 64 15.8792 64 33C64 50.1208 50.1208 64 33 64C15.8792 64 2 50.1208 2 33Z" fill="#666666"/>
<path fill-rule="evenodd" clip-rule="evenodd" d="M33.4892 18.6923C28.3912 18.6923 24.2584 22.8251 24.2584 27.9231V34.9135L23.7126 35.4551C22.7823 36.3781 22.0413 37.4205 21.5129 38.5368C21.1587 39.2849 20.9031 40.0595 20.7475 40.8462H46.2309C46.0753 40.0595 45.8198 39.2849 45.4656 38.5368C44.9371 37.4205 44.1962 36.3781 43.2659 35.455L42.72 34.9135V27.9231C42.72 22.8251 38.5872 18.6923 33.4892 18.6923ZM46.4148 40.846L46.4136 40.8461L46.4148 40.846ZM20.5636 40.846L20.5649 40.8461L20.5636 40.846ZM20.5661 27.9231C20.5661 20.7859 26.352 15 33.4892 15C40.6264 15 46.4123 20.7859 46.4123 27.9231V33.404C47.3866 34.4754 48.1937 35.6701 48.8028 36.957C49.3479 38.1084 49.7268 39.3174 49.9301 40.5551C50.3135 42.8903 48.353 44.5385 46.4123 44.5385H20.5661C18.6254 44.5385 16.6649 42.8903 17.0484 40.5551C17.2516 39.3174 17.6305 38.1084 18.1756 36.957C18.7848 35.6701 19.5919 34.4754 20.5661 33.404V27.9231Z" fill="#666666"/>
<path fill-rule="evenodd" clip-rule="evenodd" d="M25.3108 40.8462H41.9262V42.6923C41.9262 43.7833 41.7113 44.8636 41.2938 45.8715C40.8763 46.8795 40.2644 47.7953 39.493 48.5667C38.7215 49.3382 37.8057 49.9501 36.7978 50.3676C35.7898 50.7851 34.7095 51 33.6185 51C32.5276 51 31.4473 50.7851 30.4393 50.3676C29.4314 49.9501 28.5156 49.3382 27.7441 48.5667C26.9727 47.7953 26.3607 46.8795 25.9432 45.8715C25.5257 44.8636 25.3108 43.7833 25.3108 42.6923V40.8462ZM29.3885 44.5385C29.6191 45.0669 29.9469 45.5478 30.355 45.9559C30.7835 46.3845 31.2923 46.7244 31.8523 46.9564C32.4123 47.1883 33.0124 47.3077 33.6185 47.3077C34.2246 47.3077 34.8248 47.1883 35.3848 46.9564C35.9447 46.7244 36.4535 46.3845 36.8821 45.9559C37.2902 45.5478 37.618 45.0669 37.8486 44.5385H29.3885Z" fill="#666666"/>
</svg>
