<svg width="160" height="160" viewBox="0 0 160 160" fill="none" xmlns="http://www.w3.org/2000/svg">
<path fill-rule="evenodd" clip-rule="evenodd" d="M80 12C53.4903 12 32 33.4903 32 60C32 86.5097 53.4903 108 80 108C106.51 108 128 86.5097 128 60C128 33.4903 106.51 12 80 12ZM24 60C24 29.0721 49.0721 4 80 4C110.928 4 136 29.0721 136 60C136 90.9279 110.928 116 80 116C49.0721 116 24 90.9279 24 60ZM70.2697 46.6816C71.0627 47.4009 71.0627 48.5672 70.2697 49.2866C68.5726 50.8259 66.5578 52.0471 64.3404 52.8802C62.123 53.7133 59.7465 54.1421 57.3464 54.1421C54.9463 54.1421 52.5698 53.7133 50.3524 52.8802C48.135 52.0471 46.1203 50.8259 44.4231 49.2866C43.6301 48.5672 43.6301 47.4009 44.4231 46.6816C45.2162 45.9623 46.5019 45.9623 47.295 46.6816C48.615 47.8789 50.182 48.8287 51.9066 49.4766C53.6312 50.1246 55.4797 50.4581 57.3464 50.4581C59.2131 50.4581 61.0616 50.1246 62.7862 49.4766C64.5108 48.8287 66.0779 47.8789 67.3978 46.6816C68.1909 45.9623 69.4766 45.9623 70.2697 46.6816ZM115.234 46.6816C116.027 47.4009 116.027 48.5672 115.234 49.2866C113.536 50.8259 111.522 52.0471 109.304 52.8802C107.087 53.7133 104.71 54.1421 102.31 54.1421C99.9102 54.1421 97.5337 53.7133 95.3163 52.8802C93.0989 52.0471 91.0842 50.8259 89.3871 49.2866C88.594 48.5672 88.594 47.4009 89.3871 46.6816C90.1801 45.9623 91.4659 45.9623 92.2589 46.6816C93.5789 47.8789 95.1459 48.8287 96.8705 49.4766C98.5952 50.1246 100.444 50.4581 102.31 50.4581C104.177 50.4581 106.025 50.1246 107.75 49.4766C109.475 48.8287 111.042 47.8789 112.362 46.6816C113.155 45.9623 114.441 45.9623 115.234 46.6816ZM56.2758 85.9463C55.7185 86.9093 56.0325 88.1507 56.9772 88.7188C57.9219 89.287 59.1396 88.9669 59.6969 88.0038C61.6258 84.6708 64.3733 81.9076 67.6687 79.9867C70.9641 78.0658 74.6936 77.0534 78.4897 77.0493C82.2858 77.0452 86.0174 78.0495 89.3168 79.9633C92.6161 81.8771 95.3694 84.6342 97.3053 87.9631C97.8646 88.925 99.0829 89.2424 100.026 88.6722C100.97 88.102 101.281 86.86 100.722 85.8981C98.4342 81.9641 95.1804 78.7056 91.2811 76.4438C87.3818 74.1821 82.9717 72.9952 78.4855 73C73.9992 73.0049 69.5916 74.2013 65.697 76.4715C61.8025 78.7417 58.5554 82.0072 56.2758 85.9463ZM100.464 57.7186C100.465 57.7184 100.465 57.7182 102 59C103.535 57.7182 103.535 57.7184 103.536 57.7186L103.536 57.7191L103.537 57.7204L103.54 57.7244L103.551 57.7376L103.59 57.7841C103.622 57.8238 103.669 57.8807 103.727 57.9529C103.844 58.0974 104.009 58.3038 104.206 58.5576C104.598 59.0633 105.124 59.7666 105.655 60.5487C106.181 61.3236 106.737 62.2141 107.168 63.0891C107.566 63.8945 108 64.9595 108 66C108 69.3137 105.314 72 102 72C98.6863 72 96 69.3137 96 66C96 64.9595 96.434 63.8945 96.8315 63.0891C97.2634 62.2141 97.8192 61.3236 98.345 60.5487C98.8756 59.7666 99.4024 59.0633 99.7944 58.5576C99.9912 58.3038 100.156 58.0974 100.273 57.9529C100.331 57.8807 100.378 57.8238 100.41 57.7841L100.449 57.7376L100.46 57.7244L100.463 57.7204L100.464 57.7191L100.464 57.7186ZM102 59L100.465 57.7182L102 55.8794L103.535 57.7182L102 59ZM102 62.2969C101.886 62.458 101.77 62.6245 101.655 62.7945C101.181 63.4934 100.737 64.2148 100.418 64.8594C100.26 65.1806 100.147 65.4536 100.077 65.6735C100.008 65.8884 100.001 65.9894 100 65.9994V65.9995C100 66.0002 100 66.0003 100 66C100 67.1046 100.895 68 102 68C103.105 68 104 67.1046 104 66L104 65.9994C103.999 65.9894 103.992 65.8884 103.923 65.6735C103.853 65.4536 103.74 65.1806 103.582 64.8594C103.263 64.2148 102.819 63.4934 102.345 62.7945C102.23 62.6245 102.114 62.458 102 62.2969ZM47.875 151.328C54.5781 151.328 58.75 146.844 58.75 139.672V139.641C58.75 132.484 54.5625 128 47.875 128C41.2031 128 37 132.469 37 139.641V139.672C37 146.844 41.1719 151.328 47.875 151.328ZM47.875 147.328C44.1719 147.328 41.8125 144.391 41.8125 139.672V139.641C41.8125 134.922 44.1875 132 47.875 132C51.5781 132 53.9375 134.938 53.9375 139.641V139.672C53.9375 144.344 51.625 147.328 47.875 147.328ZM69.0938 151.281C74.1562 151.281 77.3906 148.031 77.3906 142.562V142.531C77.3906 137.109 74.0938 133.844 69.0781 133.844C64.0781 133.844 60.7969 137.141 60.7969 142.531V142.562C60.7969 148.016 64 151.281 69.0938 151.281ZM69.1094 147.703C66.8594 147.703 65.4375 145.844 65.4375 142.562V142.531C65.4375 139.297 66.875 137.422 69.0781 137.422C71.2969 137.422 72.75 139.297 72.75 142.531V142.562C72.75 145.828 71.3281 147.703 69.1094 147.703ZM84.3125 156.406H79.75V134.188H84.3125V137.109H84.4219C85.3281 135.078 87.1562 133.844 89.5312 133.844C93.7812 133.844 96.375 137.094 96.375 142.547V142.562C96.375 148 93.7812 151.281 89.5938 151.281C87.2031 151.281 85.3125 150.062 84.4062 148.078H84.3125V156.406ZM84.2969 142.578C84.2969 145.594 85.8125 147.5 88.0312 147.5C90.2969 147.5 91.7344 145.609 91.7344 142.562V142.547C91.7344 139.484 90.2969 137.625 88.0312 137.625C85.8125 137.625 84.2969 139.531 84.2969 142.562V142.578ZM105.641 151.281C109.953 151.281 112.969 149.125 112.969 145.844V145.828C112.969 143.359 111.531 141.984 108.031 141.25L105.188 140.641C103.5 140.281 102.922 139.719 102.922 138.859V138.844C102.922 137.766 103.906 137.062 105.484 137.062C107.172 137.062 108.156 137.969 108.312 139.172L108.328 139.297H112.531V139.141C112.422 136.203 109.938 133.844 105.484 133.844C101.219 133.844 98.4688 135.906 98.4688 139.094V139.109C98.4688 141.609 100.109 143.234 103.359 143.922L106.203 144.516C107.844 144.875 108.406 145.391 108.406 146.281V146.297C108.406 147.375 107.359 148.047 105.641 148.047C103.812 148.047 102.828 147.281 102.531 145.969L102.5 145.828H98.0469L98.0625 145.969C98.4219 149.141 101 151.281 105.641 151.281ZM120.766 143.359H116.828L116.453 128.391H121.141L120.766 143.359ZM121.344 148.672C121.344 150.047 120.219 151.125 118.797 151.125C117.375 151.125 116.25 150.047 116.25 148.672C116.25 147.297 117.375 146.219 118.797 146.219C120.219 146.219 121.344 147.297 121.344 148.672Z" fill="#B3B3B3"/>
</svg>
