<svg width="24" height="24" viewBox="0 0 24 24" fill="none" xmlns="http://www.w3.org/2000/svg">
<path d="M5 2H9V4H5C4.44772 4 4 4.44772 4 5V9H2V5C2 3.34315 3.34315 2 5 2Z" fill="#191919"/>
<path d="M15 2V4H19C19.5523 4 20 4.44772 20 5V9H22V5C22 3.34315 20.6569 2 19 2H15Z" fill="#191919"/>
<path d="M15 22V20H19C19.5523 20 20 19.5523 20 19V15H22V19C22 20.6569 20.6569 22 19 22H15Z" fill="#191919"/>
<path d="M4 19V15H2V19C2 20.6569 3.34315 22 5 22H9V20H5C4.44772 20 4 19.5523 4 19Z" fill="#191919"/>
<path d="M11 7C11 6.44771 11.4477 6 12 6C12.5523 6 13 6.44772 13 7V11H17C17.5523 11 18 11.4477 18 12C18 12.5523 17.5523 13 17 13H13V17C13 17.5523 12.5523 18 12 18C11.4477 18 11 17.5523 11 17V13H7C6.44771 13 6 12.5523 6 12C6 11.4477 6.44772 11 7 11H11V7Z" fill="#191919"/>
</svg>
