<svg width="24" height="24" viewBox="0 0 24 24" fill="none" xmlns="http://www.w3.org/2000/svg">
<path d="M14.8812 20C14.7601 20.0001 14.6401 19.9758 14.5283 19.9286C14.4164 19.8814 14.3148 19.8122 14.2294 19.7249L7.27082 12.6587C7.1849 12.5719 7.11674 12.4688 7.07026 12.3552C7.02378 12.2416 6.9999 12.1197 7 11.9967C7.00103 11.7499 7.09842 11.5135 7.27082 11.3395L14.2294 4.27323C14.3147 4.18661 14.416 4.11789 14.5274 4.07101C14.6389 4.02413 14.7583 4 14.8789 4C14.9996 4 15.119 4.02413 15.2305 4.07101C15.3419 4.11789 15.4432 4.18661 15.5285 4.27323C15.6137 4.35984 15.6814 4.46265 15.7276 4.57582C15.7737 4.68898 15.7975 4.81031 15.7975 4.9328C15.7975 5.05529 15.7737 5.17651 15.7276 5.28967C15.6814 5.40284 15.6137 5.50565 15.5285 5.59226L9.21703 11.9967L15.5285 18.4058C15.6576 18.5359 15.7458 18.7021 15.7818 18.8832C15.8179 19.0643 15.8 19.2522 15.7307 19.423C15.6613 19.5939 15.5436 19.7399 15.3923 19.8426C15.2411 19.9453 15.0632 20.0001 14.8812 20Z" fill="#666666"/>
</svg>
