<?xml version="1.0" encoding="utf-8"?>
<!-- Generator: Adobe Illustrator 23.0.3, SVG Export Plug-In . SVG Version: 6.00 Build 0)  -->
<svg version="1.1" id="圖層_1" xmlns="http://www.w3.org/2000/svg" xmlns:xlink="http://www.w3.org/1999/xlink" x="0px" y="0px"
	 viewBox="0 0 24 24" style="enable-background:new 0 0 24 24;" xml:space="preserve">
<style type="text/css">
	.st0{fill:#666666;}
</style>
<path class="st0" d="M9.4,19.8c-0.2-0.1-0.3-0.2-0.3-0.4C9,19.3,9,19.1,9,18.9c0-0.2,0.1-0.3,0.3-0.5l6.3-6.4L9.3,5.6
	C9.2,5.5,9.1,5.4,9.1,5.3C9,5.2,9,5.1,9,4.9c0-0.1,0-0.2,0.1-0.4c0-0.1,0.1-0.2,0.2-0.3c0.1-0.1,0.2-0.2,0.3-0.2C9.7,4,9.8,4,9.9,4
	c0.1,0,0.2,0,0.4,0.1c0.1,0,0.2,0.1,0.3,0.2l7,7.1c0.2,0.2,0.3,0.4,0.3,0.7c0,0.1,0,0.2-0.1,0.4s-0.1,0.2-0.2,0.3l-7,7.1
	c-0.1,0.1-0.2,0.2-0.3,0.2C10.2,20,10,20,9.9,20C9.7,20,9.6,19.9,9.4,19.8z"/>
</svg>
