<svg width="24" height="24" viewBox="0 0 24 24" fill="none" xmlns="http://www.w3.org/2000/svg">
<path d="M10.0184 18.6475H14.6V17.4814H11.7445V17.4172L12.5892 16.6275C12.8769 16.3582 13.134 16.1103 13.3605 15.8838C13.587 15.6512 13.7767 15.4278 13.9297 15.2136C14.0889 14.9932 14.2083 14.7667 14.2878 14.5341C14.3735 14.3015 14.4164 14.0475 14.4164 13.7721C14.4164 13.4354 14.3307 13.1355 14.1593 12.8723C13.994 12.6029 13.7553 12.3918 13.4431 12.2387C13.1371 12.0796 12.7698 12 12.3413 12C11.9496 12 11.6129 12.0459 11.3313 12.1377C11.0559 12.2234 10.811 12.3367 10.5968 12.4774C10.3887 12.6182 10.1898 12.7713 10 12.9365L10.7529 13.8271C11.0161 13.6129 11.2671 13.4476 11.5058 13.3313C11.7445 13.215 11.9894 13.1569 12.2403 13.1569C12.4852 13.1569 12.678 13.2212 12.8188 13.3497C12.9657 13.4782 13.0391 13.6741 13.0391 13.9373C13.0391 14.1516 12.9932 14.3536 12.9014 14.5433C12.8096 14.7269 12.6627 14.9351 12.4607 15.1677C12.2587 15.3941 11.9924 15.6788 11.6619 16.0216L10.0184 17.6834V18.6475Z" fill="#009BCD"/>
<path fill-rule="evenodd" clip-rule="evenodd" d="M7 3C7 2.44772 7.44772 2 8 2C8.55228 2 9 2.44772 9 3V4H15V3C15 2.44772 15.4477 2 16 2C16.5523 2 17 2.44772 17 3V4H19C20.6569 4 22 5.34315 22 7V19C22 20.6569 20.6569 22 19 22H5C3.34315 22 2 20.6569 2 19V7C2 5.34315 3.34315 4 5 4H7V3ZM15 6V7C15 7.55228 15.4477 8 16 8C16.5523 8 17 7.55228 17 7V6H19C19.5523 6 20 6.44772 20 7V9H4V7C4 6.44772 4.44772 6 5 6H7V7C7 7.55228 7.44772 8 8 8C8.55228 8 9 7.55228 9 7V6H15ZM4 11H20V19C20 19.5523 19.5523 20 19 20H5C4.44772 20 4 19.5523 4 19V11Z" fill="#009BCD"/>
</svg>
