<svg width="24" height="24" viewBox="0 0 24 24" fill="none" xmlns="http://www.w3.org/2000/svg">
<path fill-rule="evenodd" clip-rule="evenodd" d="M12 20C16.4183 20 20 16.4183 20 12C20 7.58172 16.4183 4 12 4C7.58172 4 4 7.58172 4 12C4 16.4183 7.58172 20 12 20ZM8.53553 8.53553C8.92606 8.145 9.55922 8.145 9.94975 8.53553L12.0711 10.6568L14.1924 8.53553C14.5829 8.145 15.2161 8.145 15.6066 8.53553C15.9971 8.92605 15.9971 9.55922 15.6066 9.94974L13.4853 12.0711L15.6066 14.1924C15.9971 14.5829 15.9971 15.2161 15.6066 15.6066C15.2161 15.9971 14.5829 15.9971 14.1924 15.6066L12.0711 13.4853L9.94975 15.6066C9.55922 15.9971 8.92606 15.9971 8.53553 15.6066C8.14501 15.2161 8.14501 14.5829 8.53553 14.1924L10.6569 12.0711L8.53553 9.94974C8.14501 9.55922 8.14501 8.92605 8.53553 8.53553Z" fill="#191919"/>
</svg>
