<svg width="24" height="24" viewBox="0 0 24 24" fill="none" xmlns="http://www.w3.org/2000/svg">
<path fill-rule="evenodd" clip-rule="evenodd" d="M12 4C7.58172 4 4 7.58172 4 12C4 16.4183 7.58172 20 12 20C16.4183 20 20 16.4183 20 12C20 7.58172 16.4183 4 12 4ZM2 12C2 6.47715 6.47715 2 12 2C17.5228 2 22 6.47715 22 12C22 17.5228 17.5228 22 12 22C6.47715 22 2 17.5228 2 12ZM12 6C12.5523 6 13 6.44772 13 7V11.5841L15.5268 13.15C15.9962 13.4409 16.1409 14.0573 15.85 14.5268C15.5591 14.9962 14.9427 15.1409 14.4732 14.85L11 12.6976V7C11 6.44772 11.4477 6 12 6Z" fill="#009BCD"/>
</svg>
