<svg width="24" height="24" viewBox="0 0 24 24" fill="none" xmlns="http://www.w3.org/2000/svg">
<path d="M2.33366 2.33366C1.88878 2.77854 1.88878 3.49984 2.33366 3.94472L10.3889 12L2.33368 20.0553C1.8888 20.5002 1.8888 21.2215 2.33368 21.6663C2.77856 22.1112 3.49986 22.1112 3.94474 21.6663L12 13.6111L20.0553 21.6663C20.5001 22.1112 21.2214 22.1112 21.6663 21.6663C22.1112 21.2215 22.1112 20.5002 21.6663 20.0553L13.6111 12L21.6663 3.94473C22.1112 3.49984 22.1112 2.77855 21.6663 2.33367C21.2215 1.88879 20.5002 1.88879 20.0553 2.33367L12 10.389L3.94472 2.33366C3.49984 1.88878 2.77854 1.88878 2.33366 2.33366Z" fill="#ffffff"/>
</svg>
