<svg width="24" height="24" viewBox="0 0 24 24" fill="none" xmlns="http://www.w3.org/2000/svg">
<path fill-rule="evenodd" clip-rule="evenodd" d="M10.901 6.08092C9.28531 4.37279 6.68936 4.37287 5.07374 6.08117C3.42889 7.81989 3.42879 10.6601 5.07365 12.3989L11.3024 18.9852C11.6812 19.3857 12.3187 19.3857 12.6974 18.9852L18.5256 12.8225L18.9267 12.3992C20.5708 10.6605 20.571 7.82009 18.9267 6.08146C17.3111 4.37317 14.715 4.37299 13.0986 6.08146L11.9997 7.24343L10.901 6.08092ZM12.0001 4.46884C9.61137 2.25671 5.95579 2.35436 3.67887 4.76179ZM12.0001 4.46884C14.3894 2.25706 18.0448 2.35468 20.3217 4.76218C22.6661 7.24114 22.6661 11.2396 20.3217 13.7185L19.9192 14.1432L14.0924 20.3045C12.9561 21.5059 11.0437 21.5059 9.90747 20.3045L3.67887 13.7183C1.33385 11.2394 1.33385 7.24075 3.67887 4.76179" fill="url(#paint0_linear_865_1789)"/>
<defs>
<linearGradient id="paint0_linear_865_1789" x1="3.71272" y1="16.9727" x2="18.6184" y2="6.24037" gradientUnits="userSpaceOnUse">
<stop stop-color="#FFAF3C"/>
<stop offset="0.5" stop-color="#73AA8C"/>
<stop offset="1" stop-color="#009BCD"/>
</linearGradient>
</defs>
</svg>
