<svg width="24" height="24" viewBox="0 0 24 24" fill="none" xmlns="http://www.w3.org/2000/svg">
<path d="M8.40494 18.9999H8.307C8.16548 18.9885 8.02824 18.9479 7.90479 18.8808C7.78133 18.8137 7.67463 18.7217 7.59205 18.6112L3.18481 12.7728C3.10957 12.6729 3.05564 12.5598 3.02612 12.4399C2.99659 12.3201 2.99205 12.1959 3.01274 12.0744C3.05453 11.829 3.19657 11.6095 3.40761 11.4642C3.61866 11.3189 3.88142 11.2596 4.1381 11.2996C4.39478 11.3395 4.62436 11.4754 4.77631 11.6772L8.50287 16.6261L19.3643 6.2414C19.5509 6.08031 19.7951 5.99399 20.0464 6.00033C20.2978 6.00666 20.5369 6.10519 20.7144 6.27546C20.8918 6.44574 20.994 6.6747 20.9997 6.91501C21.0055 7.15532 20.9143 7.38849 20.7452 7.56633L9.1003 18.7377C8.91388 18.9095 8.66387 19.0038 8.40494 18.9999Z" fill="#009BCD"/>
</svg>
