<svg width="24" height="24" viewBox="0 0 24 24" fill="none" xmlns="http://www.w3.org/2000/svg">
<path d="M12.5002 11V11.5H13.0002H17.0002C17.2763 11.5 17.5002 11.7239 17.5002 12C17.5002 12.2761 17.2763 12.5 17.0002 12.5H13.0002H12.5002V13V17C12.5002 17.2761 12.2763 17.5 12.0002 17.5C11.724 17.5 11.5002 17.2761 11.5002 17V13V12.5H11.0002H7.00015C6.72401 12.5 6.50015 12.2761 6.50015 12C6.50015 11.7239 6.72401 11.5 7.00015 11.5H11.0002H11.5002V11V7C11.5002 6.72386 11.724 6.5 12.0002 6.5C12.2763 6.5 12.5002 6.72386 12.5002 7V11ZM2.50015 12C2.50015 6.7533 6.75345 2.5 12.0002 2.5C17.2469 2.5 21.5002 6.7533 21.5002 12C21.5002 17.2467 17.2469 21.5 12.0002 21.5C6.75345 21.5 2.50015 17.2467 2.50015 12ZM12.0002 3.5C7.30573 3.5 3.50015 7.30558 3.50015 12C3.50015 16.6944 7.30573 20.5 12.0002 20.5C16.6946 20.5 20.5002 16.6944 20.5002 12C20.5002 7.30558 16.6946 3.5 12.0002 3.5Z" fill="url(#paint0_linear_864_681)" stroke="url(#paint1_linear_864_681)"/>
<defs>
<linearGradient id="paint0_linear_864_681" x1="3.77855" y1="17.3804" x2="19.4982" y2="7.09178" gradientUnits="userSpaceOnUse">
<stop stop-color="#FFAF3C"/>
<stop offset="0.5" stop-color="#73AA8C"/>
<stop offset="1" stop-color="#009BCD"/>
</linearGradient>
<linearGradient id="paint1_linear_864_681" x1="3.77855" y1="17.3804" x2="19.4982" y2="7.09178" gradientUnits="userSpaceOnUse">
<stop stop-color="#FFAF3C"/>
<stop offset="0.5" stop-color="#73AA8C"/>
<stop offset="1" stop-color="#009BCD"/>
</linearGradient>
</defs>
</svg>
