<svg width="24" height="24" viewBox="0 0 24 24" fill="none" xmlns="http://www.w3.org/2000/svg">
<path d="M4.38444 20.791C4.55955 20.9263 4.77514 20.9998 4.99708 20.9998C5.16916 21.0032 5.33922 20.9623 5.49065 20.8811L20.3181 12.9553C20.4671 12.9077 20.6041 12.8232 20.7165 12.7072C20.898 12.5196 21 12.2652 21 12C21 11.9983 21 11.9964 21 11.9947C20.9986 11.7314 20.8968 11.4793 20.7165 11.293C20.6045 11.1774 20.468 11.0929 20.3196 11.0452L5.49065 3.11876C5.25795 2.9941 4.98487 2.96629 4.7315 3.04145C4.47814 3.11661 4.26523 3.2886 4.13962 3.51955C4.01401 3.7505 3.98599 4.02148 4.06172 4.27294C4.13745 4.52439 4.31072 4.7357 4.54343 4.86036L16.0116 11H5.46802C5.21129 11 4.96508 11.1054 4.78354 11.293C4.602 11.4805 4.5 11.7348 4.5 12C4.5 12.2652 4.602 12.5196 4.78354 12.7072C4.96508 12.8947 5.21129 13 5.46802 13H16.0082L4.5235 19.1395C4.32819 19.2441 4.17362 19.4104 4.0843 19.612C3.99498 19.8137 3.97602 20.039 4.03038 20.2526C4.08475 20.4661 4.20934 20.6556 4.38444 20.791Z" fill="#ffffff"/>
<path d="M5 21C4.73478 21 4.48041 20.8957 4.29288 20.7101C4.10534 20.5245 4 20.2729 4 20.0104V3.98955C4 3.72711 4.10534 3.47548 4.29288 3.28991C4.48041 3.10433 4.73478 3 5 3C5.26522 3 5.51956 3.10433 5.70709 3.28991C5.89463 3.47548 6 3.72711 6 3.98955V20.0104C6 20.2729 5.89463 20.5245 5.70709 20.7101C5.51956 20.8957 5.26522 21 5 21Z" fill="#ffffff"/>
</svg>
