<svg width="24" height="24" viewBox="0 0 24 24" fill="none" xmlns="http://www.w3.org/2000/svg">
<path fill-rule="evenodd" clip-rule="evenodd" d="M5.42601 18.574C3.48965 18.574 1.91992 17.0042 1.91992 15.0679V5.42613C1.91992 3.48977 3.48965 1.92004 5.42601 1.92004H15.0677C17.0041 1.92004 18.5738 3.48977 18.5738 5.42613C20.5102 5.42613 22.0799 6.99586 22.0799 8.93222V18.574C22.0799 20.5103 20.5102 22.08 18.5738 22.08H8.9321C6.99574 22.08 5.42601 20.5103 5.42601 18.574ZM3.67297 5.42613C3.67297 4.45795 4.45783 3.67309 5.42601 3.67309H15.0677C16.0359 3.67309 16.8208 4.45795 16.8208 5.42613H8.9321C6.99574 5.42613 5.42601 6.99586 5.42601 8.93222L5.42601 16.8209C4.45783 16.8209 3.67297 16.036 3.67297 15.0679V5.42613ZM7.17905 8.93222C7.17905 7.96404 7.96392 7.17917 8.9321 7.17917H18.5738C19.542 7.17917 20.3269 7.96404 20.3269 8.93222V18.574C20.3269 19.5421 19.542 20.327 18.5738 20.327H8.9321C7.96392 20.327 7.17905 19.5421 7.17905 18.574V8.93222Z" fill="url(#paint0_linear_864_616)"/>
<defs>
<linearGradient id="paint0_linear_864_616" x1="3.71255" y1="17.4235" x2="19.5579" y2="7.05256" gradientUnits="userSpaceOnUse">
<stop stop-color="#FFAF3C"/>
<stop offset="0.5" stop-color="#73AA8C"/>
<stop offset="1" stop-color="#009BCD"/>
</linearGradient>
</defs>
</svg>
