<svg width="24" height="24" viewBox="0 0 24 24" fill="none" xmlns="http://www.w3.org/2000/svg">
<path fill-rule="evenodd" clip-rule="evenodd" d="M10.8783 6.24401C9.30442 4.58525 6.77585 4.58533 5.20206 6.24426C3.59947 7.93309 3.59937 10.6922 5.20197 12.381L11.2745 18.7822C11.6688 19.1979 12.3311 19.1979 12.7254 18.7822L18.7984 12.3814C20.4006 10.6925 20.4006 7.9334 18.7984 6.24455C17.2246 4.58563 14.6959 4.58544 13.1214 6.24455L11.9997 7.4269L10.8783 6.24401ZM12.0001 4.54523C9.62156 2.38253 6.00693 2.49001 3.7512 4.86767L12.0001 4.54523ZM12.0001 4.54523C14.3792 2.38288 17.9936 2.49033 20.2493 4.86806C22.5836 7.32857 22.5836 11.2973 20.2493 13.7579L19.8521 14.1757L14.1764 20.1587C12.9934 21.4058 11.0065 21.4058 9.82348 20.1587L3.7512 13.7577C1.41643 11.2972 1.41642 7.32818 3.7512 4.86767" fill="#191919"/>
</svg>
