<svg width="90" height="90" viewBox="0 0 90 90" fill="none" xmlns="http://www.w3.org/2000/svg">
<mask id="mask0_945_21458" style="mask-type:alpha" maskUnits="userSpaceOnUse" x="0" y="0" width="90" height="90">
<circle cx="45" cy="45" r="45" fill="white"/>
</mask>
<g mask="url(#mask0_945_21458)">
<path fill-rule="evenodd" clip-rule="evenodd" d="M45 42.75C53.2843 42.75 60 36.0343 60 27.75C60 19.4657 53.2843 12.75 45 12.75C36.7157 12.75 30 19.4657 30 27.75C30 36.0343 36.7157 42.75 45 42.75ZM45 105.75C61.5685 105.75 75 92.3185 75 75.75C75 59.1815 61.5685 45.75 45 45.75C28.4315 45.75 15 59.1815 15 75.75C15 92.3185 28.4315 105.75 45 105.75Z" fill="#B3B3B3"/>
</g>
</svg>
