<svg width="160" height="160" viewBox="0 0 160 160" fill="none" xmlns="http://www.w3.org/2000/svg">
<path fill-rule="evenodd" clip-rule="evenodd" d="M64 16C37.4903 16 16 37.4903 16 64C16 90.5097 37.4903 112 64 112C90.5097 112 112 90.5097 112 64C112 37.4903 90.5097 16 64 16ZM8 64C8 33.0721 33.0721 8 64 8C94.9279 8 120 33.0721 120 64C120 78.2791 114.656 91.3099 105.858 101.201L122.456 117.799C124.018 116.237 126.551 116.237 128.113 117.799L150.74 140.426C152.302 141.989 152.302 144.521 150.74 146.083L145.083 151.74C143.521 153.302 140.989 153.302 139.426 151.74L116.799 129.113C115.237 127.551 115.237 125.018 116.799 123.456L100.13 106.787C90.378 115.03 77.7694 120 64 120C33.0721 120 8 94.9279 8 64ZM88.9839 36.7648C90.7707 35.4657 93.2723 35.861 94.5715 37.6477C98.6548 43.2638 101.351 49.7666 102.44 56.6244C103.528 63.4822 102.979 70.5003 100.835 77.1048C100.153 79.2061 97.897 80.3567 95.7958 79.6748C93.6945 78.9929 92.5439 76.7366 93.2258 74.6354C94.9795 69.2316 95.4294 63.4896 94.5387 57.8787C93.6479 52.2677 91.4419 46.9473 88.101 42.3523C86.8019 40.5655 87.1972 38.0639 88.9839 36.7648Z" fill="#B3B3B3"/>
<path fill-rule="evenodd" clip-rule="evenodd" d="M77.9719 132.198L93.9244 150.46L70.1324 155.144L77.9719 132.198ZM79.5173 140.047L76.1574 149.881L86.354 147.874L79.5173 140.047Z" fill="#B3B3B3"/>
<path fill-rule="evenodd" clip-rule="evenodd" d="M140.128 8.35443L139.171 24.1157L126 15.4068L140.128 8.35443ZM137.255 12.6999L131.2 15.7223L136.845 19.4547L137.255 12.6999Z" fill="#B3B3B3"/>
<path fill-rule="evenodd" clip-rule="evenodd" d="M16 121C12.6863 121 10 123.686 10 127C10 130.314 12.6863 133 16 133C19.3137 133 22 130.314 22 127C22 123.686 19.3137 121 16 121ZM6 127C6 121.477 10.4772 117 16 117C21.5228 117 26 121.477 26 127C26 132.523 21.5228 137 16 137C10.4772 137 6 132.523 6 127Z" fill="#B3B3B3"/>
<path d="M138.286 64L136 66.2857L141.714 72L136 77.7143L138.286 80L144 74.2857L149.714 80L152 77.7143L146.286 72L152 66.2857L149.714 64L144 69.7143L138.286 64Z" fill="#B3B3B3"/>
<path d="M7.28571 3L5 5.28571L10.7143 11L5 16.7143L7.28571 19L13 13.2857L18.7143 19L21 16.7143L15.2857 11L21 5.28571L18.7143 3L13 8.71429L7.28571 3Z" fill="#B3B3B3"/>
</svg>
