<svg width="160" height="160" viewBox="0 0 160 160" fill="none" xmlns="http://www.w3.org/2000/svg">
<path fill-rule="evenodd" clip-rule="evenodd" d="M85.2482 51.9871C80.3921 43.6073 71.3462 38 61 38C45.536 38 33 50.536 33 66C33 67.1422 33.068 68.2652 33.1994 69.3656C33.6963 73.5261 31.2841 77.3605 27.5579 78.8467C23.116 80.6184 20 84.955 20 90C20 96.6274 25.3726 102 32 102H55C57.2091 102 59 103.791 59 106C59 108.209 57.2091 110 55 110H32C20.9543 110 12 101.046 12 90C12 81.5707 17.2147 74.3593 24.5941 71.416C25.0372 71.2393 25.3124 70.7879 25.2558 70.3142C25.0869 68.8997 25 67.46 25 66C25 46.1177 41.1177 30 61 30C74.3151 30 85.9419 37.2288 92.1699 47.9759C92.446 48.4523 93.0483 48.6316 93.5437 48.3915C96.7043 46.8592 100.252 46 104 46C116.92 46 127.455 56.2084 127.98 68.9991C128.002 69.5509 128.448 69.9974 129 70.0246C139.581 70.5455 148 79.2896 148 90C148 101.046 139.046 110 128 110H105C102.791 110 101 108.209 101 106C101 103.791 102.791 102 105 102H128C134.627 102 140 96.6274 140 90C140 83.5761 134.949 78.3271 128.606 78.0149C123.953 77.7858 120.18 74.0467 119.986 69.327C119.637 60.8057 112.611 54 104 54C101.487 54 99.13 54.5738 97.0335 55.5901C92.8297 57.6281 87.6588 56.1469 85.2482 51.9871ZM79.2264 67.363C79.629 66.879 80.371 66.879 80.7736 67.363L98.7647 88.9909C99.3113 89.648 98.8448 90.6456 97.991 90.6456H86.0423V129.991C86.0423 130.548 85.5915 131 85.0353 131H74.9647C74.4085 131 73.9577 130.548 73.9577 129.991V90.6456H62.009C61.1552 90.6456 60.6887 89.648 61.2353 88.9909L79.2264 67.363Z" fill="#B3B3B3"/>
</svg>
