<svg width="160" height="160" viewBox="0 0 160 160" fill="none" xmlns="http://www.w3.org/2000/svg">
<path fill-rule="evenodd" clip-rule="evenodd" d="M9.16333 70.0685C9.16333 50.7264 29.3141 33.8747 55.8066 33.8747C82.2992 33.8747 102.45 50.7264 102.45 70.0685C102.45 89.4105 82.2992 106.262 55.8066 106.262C49.6373 106.262 43.7599 105.33 38.3868 103.645L37.0734 103.233L20.7337 111.571L24.2712 96.7727L22.6194 95.4731C14.1709 88.826 9.16333 79.8195 9.16333 70.0685ZM55.8066 27.2941C27.0984 27.2941 2.5 45.7976 2.5 70.0685C2.5 81.4881 8.0451 91.725 16.8273 99.2715L13.0003 115.282C12.1827 118.702 15.8038 121.494 18.9651 119.881L37.7035 110.319C43.3635 111.955 49.4608 112.843 55.8066 112.843C84.5149 112.843 109.113 94.3393 109.113 70.0685C109.113 45.7976 84.5149 27.2941 55.8066 27.2941ZM102.528 133.529C87.0989 133.529 73.3031 128.005 64.1359 119.324C93.6361 117.041 116.687 97.3879 116.687 73.4807C116.687 67.0094 114.998 60.8498 111.95 55.262C135.045 58.7434 152.503 74.7837 152.503 94.0454C152.503 99.895 150.893 105.448 148.004 110.441L157.5 128.594L135.77 123.528C126.938 129.749 115.292 133.529 102.528 133.529ZM42.4799 71.7136C42.4799 75.348 39.4966 78.2943 35.8166 78.2943C32.1365 78.2943 29.1532 75.348 29.1532 71.7136C29.1532 68.0792 32.1365 65.1329 35.8166 65.1329C39.4966 65.1329 42.4799 68.0792 42.4799 71.7136ZM55.8066 78.2943C59.4867 78.2943 62.4699 75.348 62.4699 71.7136C62.4699 68.0792 59.4867 65.1329 55.8066 65.1329C52.1265 65.1329 49.1433 68.0792 49.1433 71.7136C49.1433 75.348 52.1265 78.2943 55.8066 78.2943ZM82.46 71.7136C82.46 75.348 79.4767 78.2943 75.7966 78.2943C72.1166 78.2943 69.1333 75.348 69.1333 71.7136C69.1333 68.0792 72.1166 65.1329 75.7966 65.1329C79.4767 65.1329 82.46 68.0792 82.46 71.7136Z" fill="#B3B3B3"/>
</svg>
