<svg width="160" height="160" viewBox="0 0 160 160" fill="none" xmlns="http://www.w3.org/2000/svg">
<g clip-path="url(#clip0_57_1005)">
<path fill-rule="evenodd" clip-rule="evenodd" d="M133.085 12.7322L111.197 34.6201L116.669 40.0921L138.557 18.2042L133.085 12.7322ZM62.7715 55.457L78.5966 36.8241L95.8073 101.055L72.7862 92.8313L54.8348 97.6413L44.8203 60.267L62.7715 55.457ZM24.1303 57.7993L58.4363 48.607L72.6983 31.8146C76.7378 27.0584 84.4564 28.7937 86.0715 34.8212L89.9199 49.1839C100.241 46.4185 110.849 52.5432 113.614 62.8639C116.38 73.1845 110.255 83.7929 99.9344 86.5583L103.282 99.0523C104.897 105.08 99.0803 110.442 93.2039 108.343L72.4567 100.931L56.8377 105.116L64.8492 135.016L42.4246 141.024L34.3411 110.857C32.1078 111.122 29.8449 111.11 27.6051 110.815C24.0786 110.35 20.6782 109.196 17.5979 107.418C14.5175 105.639 11.8177 103.271 9.6524 100.45C7.48713 97.6278 5.89887 94.4071 4.97829 90.9715C4.0577 87.5358 3.82284 83.9525 4.2871 80.4261C4.75137 76.8996 5.90566 73.4992 7.68409 70.4189C9.46251 67.3386 11.8302 64.6387 14.6521 62.4734C17.4739 60.3081 20.6946 58.7199 24.1303 57.7993ZM97.9315 79.0834L91.9228 56.6588C98.1152 54.9996 104.48 58.6744 106.139 64.8668C107.799 71.0592 104.124 77.4242 97.9315 79.0834ZM19.363 68.6128C21.3786 67.0662 23.6791 65.9317 26.1331 65.2742L37.3455 62.2698L55.3714 129.544L47.8966 131.547L39.885 101.647L36.1476 102.649C33.6935 103.306 31.134 103.474 28.6151 103.142C26.0963 102.811 23.6674 101.986 21.4672 100.716C19.2669 99.4455 17.3384 97.7543 15.7918 95.7387C14.2452 93.7231 13.1107 91.4226 12.4532 88.9686C11.7956 86.5145 11.6278 83.955 11.9595 81.4361C12.2911 78.9173 13.1156 76.4884 14.3859 74.2882C15.6562 72.0879 17.3474 70.1594 19.363 68.6128ZM116.938 56.5797L146.837 48.5682L148.84 56.0431L118.941 64.0546L116.938 56.5797ZM156.852 86.4793L126.952 78.4678L124.949 85.9427L154.849 93.9542L156.852 86.4793Z" fill="#B3B3B3"/>
</g>
<defs>
<clipPath id="clip0_57_1005">
<rect width="160" height="160" fill="white"/>
</clipPath>
</defs>
</svg>
