<svg width="160" height="160" viewBox="0 0 160 160" fill="none" xmlns="http://www.w3.org/2000/svg">
<path fill-rule="evenodd" clip-rule="evenodd" d="M71.3675 32C67.7221 32 64.2743 33.6571 61.9971 36.5037L56 44H32C25.3726 44 20 49.3726 20 56V116C20 122.627 25.3726 128 32 128H128C134.627 128 140 122.627 140 116V56C140 49.3726 134.627 44 128 44H104L98.0029 36.5037C95.7257 33.6571 92.2779 32 88.6325 32H71.3675ZM110 86C110 102.569 96.5685 116 80 116C63.4315 116 50 102.569 50 86C50 69.4315 63.4315 56 80 56C96.5685 56 110 69.4315 110 86ZM122 68C125.314 68 128 65.3137 128 62C128 58.6863 125.314 56 122 56C118.686 56 116 58.6863 116 62C116 65.3137 118.686 68 122 68Z" fill="#B3B3B3"/>
<path d="M98 86C98 95.9411 89.9411 104 80 104C70.0589 104 62 95.9411 62 86C62 76.0589 70.0589 68 80 68C89.9411 68 98 76.0589 98 86Z" fill="#B3B3B3"/>
</svg>
