<svg width="24" height="24" viewBox="0 0 24 24" fill="none" xmlns="http://www.w3.org/2000/svg">
<path fill-rule="evenodd" clip-rule="evenodd" d="M9.54649 13.2705C10.1687 13.6862 10.9003 13.9081 11.6487 13.9081C12.6518 13.9068 13.6134 13.5078 14.3227 12.7985C15.032 12.0892 15.4311 11.1274 15.4324 10.1243C15.4324 9.37593 15.2105 8.64438 14.7948 8.02213C14.379 7.39989 13.788 6.91496 13.0966 6.62857C12.4052 6.34218 11.6444 6.26727 10.9105 6.41327C10.1765 6.55927 9.50228 6.91959 8.97311 7.44877C8.44394 7.97795 8.08357 8.65214 7.93757 9.38613C7.79157 10.1201 7.8665 10.8809 8.15289 11.5723C8.43927 12.2637 8.92425 12.8547 9.54649 13.2705ZM10.6676 8.6561C10.958 8.46207 11.2994 8.35851 11.6487 8.35851C12.117 8.35851 12.5661 8.54456 12.8972 8.87571C13.2284 9.20686 13.4144 9.65598 13.4144 10.1243C13.4144 10.4735 13.3108 10.815 13.1168 11.1054C12.9228 11.3957 12.647 11.6221 12.3244 11.7557C12.0017 11.8894 11.6467 11.9243 11.3042 11.8562C10.9616 11.7881 10.647 11.62 10.4001 11.373C10.1531 11.1261 9.98494 10.8113 9.9168 10.4688C9.84867 10.1263 9.88365 9.77123 10.0173 9.44858C10.1509 9.12593 10.3773 8.85012 10.6676 8.6561Z" fill="#191919"/>
<path fill-rule="evenodd" clip-rule="evenodd" d="M10.3525 21.4531C10.6963 21.7983 11.1633 21.9948 11.6521 22C11.8946 21.9976 12.1343 21.9477 12.3574 21.8529C12.5804 21.7581 12.7823 21.6203 12.9516 21.4476L17.7697 16.6677C19.3884 15.0543 20.2973 12.8695 20.2973 10.5918C20.2973 8.31407 19.3884 6.12915 17.7697 4.51569C16.9682 3.71524 16.0149 3.08079 14.9647 2.64895C13.9146 2.21711 12.7886 1.99655 11.6521 2.00004C9.94093 1.99975 8.26814 2.50348 6.84529 3.44753C5.42243 4.39159 4.31343 5.73347 3.65857 7.30359C3.0037 8.87371 2.8324 10.6014 3.16631 12.2683C3.50021 13.9351 4.32434 15.4662 5.53444 16.6677L10.3525 21.4531ZM8.06618 5.2821C9.12769 4.57812 10.3757 4.20289 11.6521 4.20392C12.4997 4.20106 13.3395 4.36599 14.1223 4.689C14.9051 5.01201 15.6153 5.48674 16.2114 6.08535C17.4178 7.28777 18.0953 8.91613 18.0953 10.6137C18.0953 12.3112 17.4178 13.9395 16.2114 15.1419L11.6521 19.6702L7.09276 15.1419C6.18915 14.2465 5.57341 13.105 5.32355 11.8618C5.07368 10.6186 5.20092 9.32982 5.68916 8.15852C6.17739 6.98721 7.00467 5.98607 8.06618 5.2821Z" fill="#191919"/>
</svg>
