<svg width="24" height="24" viewBox="0 0 24 24" fill="none" xmlns="http://www.w3.org/2000/svg">
<path d="M18.4101 4.64857C17.6482 3.83097 16.7295 3.17512 15.7087 2.72028C14.6879 2.26545 13.5859 2.02101 12.4685 2.0013C11.3512 1.98158 10.2413 2.18707 9.2051 2.60561C8.16889 3.02415 7.22761 3.64706 6.43739 4.43728C5.64717 5.2275 5.02426 6.16889 4.60572 7.2051C4.18718 8.2413 3.98158 9.35106 4.00129 10.4684C4.02101 11.5858 4.26556 12.6879 4.7204 13.7087C5.17523 14.7295 5.83108 15.6481 6.64868 16.41L11.9376 21.7636C12.09 21.915 12.2961 22 12.5109 22C12.7256 22 12.9317 21.915 13.0841 21.7636L18.3916 16.4562C19.1714 15.684 19.7907 14.7651 20.214 13.7525C20.6372 12.7399 20.856 11.6537 20.8577 10.5562C20.8594 9.45877 20.6441 8.37182 20.224 7.35793C19.8039 6.34404 19.1874 5.42324 18.4101 4.64857ZM12.5294 13.7378C11.8692 13.7378 11.2238 13.5421 10.6749 13.1753C10.126 12.8085 9.69815 12.2872 9.44551 11.6773C9.19287 11.0673 9.12676 10.396 9.25555 9.74853C9.38435 9.10103 9.70231 8.50626 10.1691 8.03944C10.6359 7.57262 11.2306 7.25488 11.8781 7.12609C12.5256 6.99729 13.1968 7.0633 13.8067 7.31594C14.4167 7.56858 14.938 7.99641 15.3048 8.54533C15.6715 9.09425 15.8673 9.73961 15.8673 10.3998C15.8673 10.8413 15.7798 11.2784 15.6097 11.6859C15.4397 12.0933 15.1905 12.4628 14.8766 12.7732C14.5628 13.0837 14.1904 13.3289 13.7811 13.4945C13.3719 13.6601 12.9338 13.7427 12.4924 13.7378H12.5294Z" fill="#666666"/>
</svg>
