<svg width="160" height="160" viewBox="0 0 160 160" fill="none" xmlns="http://www.w3.org/2000/svg">
<path fill-rule="evenodd" clip-rule="evenodd" d="M78.9035 37.4684C79.2679 37.4592 79.6334 37.4545 80 37.4545C92.7925 37.4545 104.266 43.1004 112.066 52.0363L99.8548 72.3877L78.9035 37.4684ZM68.7684 38.9528C56.9722 42.173 47.2186 50.3423 41.8769 61.091H70.4685C70.5229 61.0901 70.5773 61.0901 70.6318 61.091H82.0511L68.7684 38.9528ZM38.5088 70.5456C37.8188 73.5862 37.4545 76.7506 37.4545 80C37.4545 87.9308 39.6246 95.3548 43.4032 101.711L62.1788 70.5456H38.5088ZM49.5929 109.758C57.0114 117.337 67.2408 122.154 78.5948 122.523L60.7335 91.2659L49.5929 109.758ZM88.9573 121.601C99.9332 119.249 109.339 112.663 115.381 103.636H89.5326C89.4778 103.637 89.4229 103.637 89.368 103.636H78.6918L88.9573 121.601ZM120.124 94.1819C121.692 89.7461 122.545 84.9727 122.545 80C122.545 73.0399 120.874 66.4702 117.911 60.6703L97.804 94.1819H120.124ZM80 28C51.2812 28 28 51.2812 28 80C28 108.719 51.2812 132 80 132C108.719 132 132 108.719 132 80C132 51.2812 108.719 28 80 28ZM94.3419 81.5759L87.7238 70.5456H73.2166L66.322 81.9897L73.2891 94.1819H86.7782L94.3419 81.5759Z" fill="#B3B3B3"/>
</svg>
