<svg width="160" height="160" viewBox="0 0 160 160" fill="none" xmlns="http://www.w3.org/2000/svg">
<path fill-rule="evenodd" clip-rule="evenodd" d="M16 18C16 11.3726 21.3726 6 28 6H132C138.627 6 144 11.3726 144 18V92C144 98.6274 138.627 104 132 104H28C21.3726 104 16 98.6274 16 92V18ZM28 14C25.7909 14 24 15.7909 24 18V92C24 94.2091 25.7909 96 28 96H132C134.209 96 136 94.2091 136 92V18C136 15.7909 134.209 14 132 14H28Z" fill="#B3B3B3"/>
<path d="M66 33C66 39.6274 60.6274 45 54 45C47.3726 45 42 39.6274 42 33C42 26.3726 47.3726 21 54 21C60.6274 21 66 26.3726 66 33Z" fill="#B3B3B3"/>
<path d="M126.061 87.9999C130.973 87.9999 133.754 82.3011 130.768 78.3541L103.528 42.3521C101.155 39.2159 96.4859 39.216 94.113 42.3522L78.0161 63.6266C75.7847 66.5756 71.468 66.7851 68.9679 64.0656L59.9905 54.3002C57.6456 51.7495 53.6538 51.7495 51.3089 54.3002L29.5995 77.9151C26.072 81.7522 28.7612 88 33.9403 88L90.971 88L126.061 87.9999Z" fill="#B3B3B3"/>
<rect x="20" y="114" width="120" height="8" rx="4" fill="#B3B3B3"/>
<rect x="20" y="130" width="72" height="8" rx="4" fill="#B3B3B3"/>
<rect x="20" y="146" width="96" height="8" rx="4" fill="#B3B3B3"/>
</svg>
