<svg width="25" height="25" viewBox="0 0 25 25" fill="none" xmlns="http://www.w3.org/2000/svg">
<path d="M16.3925 13.7063C17.9757 12.5208 19.0002 10.6301 19.0002 8.5C19.0002 4.91015 16.0901 2 12.5002 2C8.91039 2 6.00024 4.91015 6.00024 8.5C6.00024 10.6301 7.02482 12.5208 8.60803 13.7063C8.56036 13.7243 8.5128 13.7426 8.46538 13.7612C7.18617 14.2638 6.02385 15.0003 5.04479 15.9289C4.06572 16.8575 3.28908 17.9599 2.75922 19.1732C2.3577 20.0925 2.10384 21.0619 2.00442 22.049C1.95168 22.5726 2.40621 23 2.96079 23H22.0397C22.5943 23 23.0488 22.5726 22.9961 22.049C22.8966 21.0619 22.6428 20.0925 22.2413 19.1732C21.7114 17.9599 20.9348 16.8575 19.9557 15.9289C18.9766 15.0003 17.8143 14.2638 16.5351 13.7612C16.4877 13.7426 16.4401 13.7243 16.3925 13.7063Z" fill="url(#paint0_linear_1307_39734)"/>
<defs>
<linearGradient id="paint0_linear_1307_39734" x1="3.86756" y1="18.1494" x2="20.3731" y2="7.34637" gradientUnits="userSpaceOnUse">
<stop stop-color="#FFAF3C"/>
<stop offset="0.5" stop-color="#73AA8C"/>
<stop offset="1" stop-color="#009BCD"/>
</linearGradient>
</defs>
</svg>
