<svg width="25" height="25" viewBox="0 0 25 25" fill="none" xmlns="http://www.w3.org/2000/svg">
<rect width="25" height="25" fill="transparent"/>
<path d="M16.3924 13.7063C17.9756 12.5208 19.0002 10.6301 19.0002 8.5C19.0002 4.91015 16.09 2 12.5002 2C8.91033 2 6.00018 4.91015 6.00018 8.5C6.00018 10.6301 7.02476 12.5208 8.60797 13.7063C8.5603 13.7243 8.51274 13.7426 8.46532 13.7612C7.18611 14.2638 6.02379 15.0003 5.04472 15.9289C4.06566 16.8575 3.28902 17.9599 2.75916 19.1732C2.35764 20.0925 2.10378 21.0619 2.00435 22.049C1.95162 22.5726 2.40615 23 2.96073 23H22.0396C22.5942 23 23.0487 22.5726 22.996 22.049C22.8966 21.0619 22.6427 20.0925 22.2412 19.1732C21.7113 17.9599 20.9347 16.8575 19.9556 15.9289C18.9766 15.0003 17.8143 14.2638 16.535 13.7612C16.4876 13.7426 16.4401 13.7243 16.3924 13.7063Z" fill="#666666"/>
</svg>
