<svg width="24" height="24" viewBox="0 0 24 24" fill="none" xmlns="http://www.w3.org/2000/svg">
<path fill-rule="evenodd" clip-rule="evenodd" d="M21.9935 20.9357C21.9978 20.8148 22 20.6934 22 20.5714C22 16.8541 19.972 13.6123 16.9644 11.889C17.734 10.8575 18.1905 9.57703 18.1905 8.19048C18.1905 4.77157 15.4189 2 12 2C8.58109 2 5.80952 4.77157 5.80952 8.19048C5.80952 9.57703 6.26601 10.8575 7.03555 11.889C4.02804 13.6123 2 16.8541 2 20.5714C2 20.6934 2.00218 20.8148 2.00651 20.9357C2.00221 20.9724 2 21.0097 2 21.0476C2 21.5736 2.4264 22 2.95238 22H21.0476C21.5736 22 22 21.5736 22 21.0476C22 21.0097 21.9978 20.9724 21.9935 20.9357ZM12 3.90476C9.63307 3.90476 7.71429 5.82354 7.71429 8.19048C7.71429 9.49828 8.2989 10.6686 9.22443 11.4561L10.4213 12.4746L8.96457 13.0642C6.13577 14.2093 4.10359 16.9054 3.91854 20.0952H20.0815C19.8964 16.9054 17.8642 14.2093 15.0354 13.0642L13.5787 12.4746L14.7756 11.4561C15.7011 10.6686 16.2857 9.49828 16.2857 8.19048C16.2857 5.82354 14.3669 3.90476 12 3.90476Z" fill="#ffffff"/>
</svg>
