<?xml version="1.0" encoding="utf-8"?>
<!-- Generator: Adobe Illustrator 23.0.3, SVG Export Plug-In . SVG Version: 6.00 Build 0)  -->
<svg version="1.1" id="圖層_1" xmlns="http://www.w3.org/2000/svg" xmlns:xlink="http://www.w3.org/1999/xlink" x="0px" y="0px"
	 viewBox="0 0 32.1 32" style="enable-background:new 0 0 32.1 32;" xml:space="preserve">
<style type="text/css">
	.st0{opacity:0.7;}
	.st1{fill-rule:evenodd;clip-rule:evenodd;fill:#FFFFFF;}
</style>
<g class="st0">
	<path class="st1" d="M16.1,0C7.2,0,0,7.2,0,16s7.2,16,16.1,16c8.9,0,16.1-7.2,16.1-16S24.9,0,16.1,0z M14,9.7
		c-0.1,0-0.2-0.1-0.3-0.1c-0.1,0-0.3,0-0.4,0.1c-0.1,0.1-0.2,0.2-0.3,0.3c-0.1,0.1-0.1,0.3,0,0.4c0,0.1,0.1,0.3,0.2,0.4l5.1,5.1
		l-5.1,5.1c-0.1,0.1-0.1,0.2-0.2,0.2c0,0.1-0.1,0.2-0.1,0.3c0,0.1,0,0.2,0.1,0.3c0,0.1,0.1,0.2,0.2,0.2s0.1,0.1,0.2,0.2
		c0.1,0,0.2,0.1,0.3,0.1c0.1,0,0.2,0,0.3-0.1c0.1,0,0.2-0.1,0.2-0.2l5.6-5.7c0.1-0.1,0.2-0.3,0.2-0.5c0-0.1,0-0.2-0.1-0.3
		c0-0.1-0.1-0.2-0.2-0.2l-5.6-5.7C14.2,9.8,14.1,9.7,14,9.7z"/>
</g>
</svg>
