<svg width="24" height="24" viewBox="0 0 24 24" fill="none" xmlns="http://www.w3.org/2000/svg">
<path d="M21.952 9.17626C21.8896 8.9833 21.7729 8.81213 21.6159 8.68268C21.4589 8.55323 21.268 8.47101 21.0656 8.44557L15.4722 7.63533L12.9636 2.59871C12.8754 2.41887 12.738 2.26735 12.5672 2.16146C12.3963 2.05557 12.1989 1.99964 11.9975 2.00001C11.7948 1.99902 11.5958 2.05473 11.4234 2.1606C11.251 2.26647 11.1121 2.41817 11.0224 2.59871L8.52261 7.63533L2.92044 8.44557C2.72136 8.47533 2.53455 8.55965 2.38113 8.68913C2.22772 8.81862 2.1138 8.98806 2.05208 9.17841C1.99035 9.36876 1.98335 9.57249 2.03184 9.76658C2.08033 9.96067 2.18234 10.1373 2.32649 10.2769L6.37753 14.1955L5.42012 19.7426C5.38362 19.9406 5.40436 20.1449 5.47985 20.3317C5.55533 20.5184 5.6825 20.68 5.84667 20.7979C6.01083 20.9159 6.2052 20.9852 6.40739 20.9979C6.60958 21.0106 6.81129 20.9662 6.98911 20.8697L11.9975 18.2282L17.0058 20.8697C17.1606 20.9536 17.3347 20.9962 17.511 20.9931C17.7368 20.992 17.9567 20.9213 18.1403 20.7906C18.3046 20.6743 18.4326 20.5142 18.5094 20.3289C18.5863 20.1435 18.6088 19.9402 18.5747 19.7426L17.6174 14.1955L21.6684 10.2769C21.8128 10.137 21.9156 9.96029 21.9657 9.76615C22.0157 9.57201 22.011 9.36791 21.952 9.17626Z" fill="#FFAF3C"/>
</svg>
