<svg width="66" height="66" viewBox="0 0 66 66" fill="none" xmlns="http://www.w3.org/2000/svg">
<rect width="66" height="66" fill="white"/>
<path d="M62 33C62 49.0163 49.0163 62 33 62C16.9837 62 4 49.0163 4 33C4 16.9837 16.9837 4 33 4C49.0163 4 62 16.9837 62 33Z" stroke="#E52E2E" stroke-width="4"/>
<path d="M33.3615 53.2409C32.4949 53.2392 31.6622 52.9037 31.0363 52.3044C30.4104 51.705 30.0393 50.8877 30 50.022C30.0375 49.1425 30.4037 48.3092 31.0262 47.6868C31.6487 47.0643 32.482 46.6982 33.3615 46.6607C33.8119 46.6274 34.2643 46.6915 34.6877 46.8485C35.1112 47.0055 35.4959 47.2518 35.8158 47.5707C36.1356 47.8895 36.383 48.2735 36.5413 48.6965C36.6996 49.1195 36.7651 49.5714 36.7332 50.022C36.7308 50.457 36.6408 50.8873 36.4686 51.2868C36.2963 51.6863 36.0454 52.047 35.7307 52.3474C35.416 52.6478 35.044 52.8818 34.637 53.0353C34.2299 53.1888 33.7962 53.2587 33.3615 53.2409ZM31.2631 40.8544V39.8358C31.2631 35.1094 30.7844 23.7418 30.489 16.0818V15.9391C30.4825 15.5719 30.5523 15.2075 30.6942 14.8687C30.8361 14.53 31.0469 14.2244 31.3132 13.9715C31.5795 13.7186 31.8956 13.524 32.2412 13.3997C32.5868 13.2755 32.9543 13.2246 33.3207 13.25C33.7028 13.2273 34.0854 13.2841 34.4443 13.4172C34.8031 13.5502 35.1304 13.7564 35.4053 14.0227C35.6802 14.289 35.8968 14.6095 36.0412 14.964C36.1856 15.3184 36.2547 15.6992 36.2441 16.0818C36.2441 21.837 35.4599 35.2522 35.4599 39.9887C35.4599 41.15 35.4598 43.2075 33.3207 43.2075C33.0332 43.2003 32.7504 43.1343 32.4896 43.0132C32.2288 42.8922 31.9956 42.7188 31.8046 42.5039C31.6136 42.289 31.4687 42.0371 31.3791 41.7638C31.2895 41.4906 31.2569 41.2019 31.2835 40.9156L31.2631 40.8544Z" fill="#E52E2E"/>
</svg>
