<svg width="24" height="24" viewBox="0 0 24 24" fill="none" xmlns="http://www.w3.org/2000/svg">
<path d="M7.12326 14.7591C6.87244 14.759 6.62183 14.7443 6.37272 14.7152C3.1415 14.3106 1.2018 11.3963 1.11894 11.2696C0.977408 11.0531 0.927688 10.7892 0.980699 10.536C1.03371 10.2829 1.18512 10.0611 1.40162 9.91958C1.61813 9.77804 1.88199 9.72831 2.13517 9.78132C2.38834 9.83433 2.61008 9.98566 2.75161 10.2022C2.75161 10.2022 4.29655 12.4977 6.65052 12.7803C8.1126 12.9558 9.59906 12.3319 11.1294 10.9332C12.9083 9.30055 14.8431 8.53055 16.8656 8.65239C20.3357 8.8522 22.7579 11.6058 22.8553 11.7228C22.9976 11.9197 23.0613 12.1627 23.0337 12.4041C23.0062 12.6455 22.8894 12.868 22.7064 13.0278C22.5234 13.1877 22.2873 13.2734 22.0444 13.2682C21.8015 13.263 21.5692 13.1671 21.3932 12.9996C21.3932 12.9996 19.3902 10.7432 16.7487 10.597C15.2866 10.5141 13.8245 11.1136 12.455 12.371C10.6908 13.9403 8.91188 14.7591 7.12326 14.7591Z" fill="url(#paint0_linear_864_745)"/>
<defs>
<linearGradient id="paint0_linear_864_745" x1="2.92334" y1="13.3457" x2="6.69202" y2="4.44521" gradientUnits="userSpaceOnUse">
<stop stop-color="#FFAF3C"/>
<stop offset="0.5" stop-color="#73AA8C"/>
<stop offset="1" stop-color="#009BCD"/>
</linearGradient>
</defs>
</svg>
