<svg width="24" height="24" viewBox="0 0 24 24" fill="none" xmlns="http://www.w3.org/2000/svg">
<path d="M10 3C10 2.44772 10.4477 2 11 2H13C13.5523 2 14 2.44772 14 3V4H20C20.5523 4 21 4.44772 21 5C21 5.55228 20.5523 6 20 6H4C3.44772 6 3 5.55228 3 5C3 4.44772 3.44772 4 4 4H10V3Z" fill="#191919"/>
<path d="M13.3592 12.2815C13.7346 11.9062 14.3431 11.9062 14.7185 12.2815C15.0938 12.6569 15.0938 13.2654 14.7185 13.6408L13.3592 15L14.7185 16.3592C15.0938 16.7346 15.0938 17.3431 14.7185 17.7185C14.3431 18.0938 13.7346 18.0938 13.3592 17.7185L12 16.3592L10.6408 17.7185C10.2654 18.0938 9.65686 18.0938 9.28152 17.7185C8.90617 17.3431 8.90617 16.7346 9.28152 16.3592L10.6408 15L9.28151 13.6408C8.90616 13.2654 8.90616 12.6569 9.28151 12.2815C9.65685 11.9062 10.2654 11.9062 10.6408 12.2815L12 13.6408L13.3592 12.2815Z" fill="#191919"/>
<path fill-rule="evenodd" clip-rule="evenodd" d="M5 7H19V19C19 20.6569 17.6569 22 16 22H8C6.34315 22 5 20.6569 5 19V7ZM7 9V19C7 19.5523 7.44772 20 8 20H16C16.5523 20 17 19.5523 17 19V9H7Z" fill="#191919"/>
</svg>
