<svg width="24" height="24" viewBox="0 0 24 24" fill="none" xmlns="http://www.w3.org/2000/svg">
<path d="M20 10.1188C20.0001 10.2399 19.9758 10.3599 19.9286 10.4717C19.8814 10.5836 19.8122 10.6852 19.7249 10.7706L12.6587 17.7292C12.5719 17.8151 12.4688 17.8833 12.3552 17.9297C12.2416 17.9762 12.1197 18.0001 11.9967 18C11.7499 17.999 11.5135 17.9016 11.3395 17.7292L4.27323 10.7706C4.18661 10.6853 4.11789 10.584 4.07101 10.4726C4.02413 10.3611 4 10.2417 4 10.1211C4 10.0004 4.02413 9.88099 4.07101 9.76955C4.11789 9.6581 4.18661 9.55684 4.27323 9.47155C4.35984 9.38626 4.46265 9.31859 4.57582 9.27243C4.68898 9.22627 4.81031 9.20252 4.9328 9.20252C5.05529 9.20252 5.17651 9.22628 5.28967 9.27244C5.40284 9.3186 5.50565 9.38626 5.59226 9.47155L11.9967 15.783L18.4058 9.47155C18.5359 9.34236 18.7021 9.25417 18.8832 9.21816C19.0643 9.18215 19.2522 9.19995 19.423 9.2693C19.5939 9.33865 19.7399 9.45643 19.8426 9.60767C19.9453 9.75891 20.0001 9.93681 20 10.1188Z" fill="#191919"/>
</svg>
