<svg width="24" height="24" viewBox="0 0 24 24" fill="none" xmlns="http://www.w3.org/2000/svg">
<path fill-rule="evenodd" clip-rule="evenodd" d="M12.9474 3.94957V5.43561C14.0356 5.59127 15.0387 6.01106 15.8894 6.62815L16.9512 5.56617C16.9889 5.52847 17.0294 5.49436 17.0722 5.46383C17.1633 5.39895 17.2649 5.35084 17.3722 5.32147L17.4048 5.31326L17.4393 5.30574L17.4756 5.29927C17.4918 5.29672 17.508 5.29464 17.5242 5.2929C17.5565 5.28955 17.5894 5.28782 17.6222 5.2877C17.8736 5.28735 18.1149 5.38692 18.2925 5.56467C18.3656 5.63764 18.4253 5.72137 18.4704 5.81215C18.496 5.86373 18.5169 5.91762 18.5328 5.97313C18.5571 6.05755 18.5696 6.14567 18.5696 6.23507C18.5694 6.4866 18.469 6.72795 18.2909 6.90604L17.2496 7.94732C17.9335 8.83177 18.3987 9.89398 18.5645 11.0526H20.0503C20.3022 11.0526 20.5437 11.1524 20.7218 11.3302C20.8999 11.5078 21 11.7487 21 12C21 12.2513 20.8999 12.4922 20.7218 12.6699C20.5437 12.8476 20.3022 12.9474 20.0503 12.9474H18.5645C18.3957 14.1279 18.0166 15.0772 17.3114 15.9715C17.3455 15.9282 17.2783 16.0157 17.3114 15.9715L18.2909 16.9511C18.469 17.1292 18.5691 17.3706 18.5696 17.6221C18.5698 17.8736 18.4701 18.1149 18.2925 18.2925C18.2421 18.343 18.1863 18.3873 18.1267 18.4248C18.0735 18.4581 18.0173 18.486 17.9588 18.5081C17.8524 18.5484 17.7383 18.5696 17.6222 18.5695C17.3706 18.5691 17.1293 18.469 16.9512 18.2909L15.9715 17.3113C15.1035 17.9614 14.071 18.4038 12.9474 18.5644V20.0504C12.9474 20.0713 12.9467 20.092 12.9453 20.1125C12.9432 20.1445 12.9395 20.1761 12.9344 20.2075C12.9018 20.401 12.8102 20.5811 12.6698 20.7218C12.6467 20.745 12.6224 20.7669 12.5972 20.7873C12.5773 20.8036 12.5567 20.819 12.5354 20.8336C12.4732 20.8764 12.4061 20.9114 12.3358 20.9381C12.2297 20.9786 12.1159 21 12 21C11.7488 21 11.5078 20.8999 11.3302 20.7218C11.1525 20.5437 11.0526 20.3022 11.0526 20.0504V18.5644C9.89386 18.3987 8.83177 17.9334 7.94732 17.2496L6.90604 18.291C6.72795 18.4691 6.48671 18.5692 6.23507 18.5695C5.98342 18.5698 5.74242 18.4703 5.56456 18.2925C5.454 18.1821 5.37397 18.047 5.3291 17.9001C5.30181 17.8108 5.2877 17.7173 5.2877 17.6221C5.28793 17.3706 5.38808 17.1292 5.56617 16.9511L6.62803 15.8893L6.64191 15.9082C6.01742 15.0535 5.59231 14.0437 5.4355 12.9474H3.94968C3.80651 12.9474 3.66658 12.9151 3.53983 12.8546C3.50028 12.8358 3.46189 12.8141 3.42511 12.7899C3.37261 12.7552 3.32335 12.715 3.27824 12.6699C3.19637 12.5882 3.13091 12.4931 3.08419 12.3897C3.02914 12.2684 3 12.1358 3 12C3 11.8815 3.0222 11.7652 3.06453 11.6569C3.11171 11.5356 3.18411 11.424 3.27824 11.3301C3.45634 11.1524 3.69781 11.0526 3.94968 11.0526H5.4355C5.59694 9.92405 6.03361 8.89908 6.68863 8.0285L5.56617 6.90593C5.38808 6.72783 5.28793 6.4866 5.2877 6.23495C5.28747 5.98342 5.38692 5.7423 5.56456 5.56456C5.74219 5.38692 5.98342 5.28735 6.23507 5.28758C6.36159 5.28782 6.48556 5.31326 6.60028 5.36114C6.71338 5.40843 6.81746 5.47771 6.90604 5.56617L8.0285 6.68863C8.89677 6.03801 9.92856 5.59636 11.0526 5.43561V3.94957C11.0526 3.69781 11.1525 3.45634 11.3302 3.27824C11.5078 3.10015 11.7488 3 12 3C12.2512 3 12.4922 3.10015 12.6698 3.27824C12.7316 3.34023 12.7841 3.40973 12.8262 3.48479C12.8486 3.5248 12.868 3.56632 12.8845 3.60899C12.9039 3.65976 12.9189 3.71226 12.9296 3.76592C12.9414 3.82594 12.9474 3.88746 12.9474 3.94957ZM12 7.26316C9.38387 7.26316 7.26316 9.38387 7.26316 12C7.26316 14.6161 9.38387 16.7368 12 16.7368C14.6161 16.7368 16.7368 14.6161 16.7368 12C16.7368 9.38387 14.6161 7.26316 12 7.26316Z" fill="#191919"/>
</svg>
