<svg width="24" height="24" viewBox="0 0 24 24" fill="none" xmlns="http://www.w3.org/2000/svg">
<path d="M11.1188 4C11.2399 3.9999 11.3599 4.02415 11.4717 4.07135C11.5836 4.11855 11.6852 4.18781 11.7706 4.27505L18.7292 11.3413C18.8151 11.4281 18.8833 11.5312 18.9297 11.6448C18.9762 11.7584 19.0001 11.8803 19 12.0033C18.999 12.2501 18.9016 12.4865 18.7292 12.6605L11.7706 19.7268C11.6853 19.8134 11.584 19.8821 11.4726 19.929C11.3611 19.9759 11.2417 20 11.1211 20C11.0004 20 10.881 19.9759 10.7695 19.929C10.6581 19.8821 10.5568 19.8134 10.4715 19.7268C10.3863 19.6402 10.3186 19.5373 10.2724 19.4242C10.2263 19.311 10.2025 19.1897 10.2025 19.0672C10.2025 18.9447 10.2263 18.8235 10.2724 18.7103C10.3186 18.5972 10.3863 18.4944 10.4715 18.4077L16.783 12.0033L10.4716 5.5942C10.3424 5.46408 10.2542 5.29793 10.2182 5.11681C10.1822 4.9357 10.2 4.74777 10.2693 4.57696C10.3387 4.40614 10.4564 4.2601 10.6077 4.15738C10.7589 4.05467 10.9368 3.99985 11.1188 4Z" fill="#191919"/>
</svg>
