<svg width="24" height="24" viewBox="0 0 24 24" fill="none" xmlns="http://www.w3.org/2000/svg">
<path d="M11.1537 8.68481C10.7501 9.63094 9.8114 10.2941 8.7178 10.2941C7.6242 10.2941 6.6855 9.63094 6.28191 8.68481H4.03776C3.76253 8.68481 3.49857 8.57318 3.30395 8.37461C3.10933 8.17604 3 7.90681 3 7.62599C3 7.34517 3.10933 7.07581 3.30395 6.87724C3.49857 6.67867 3.76253 6.56717 4.03776 6.56717H6.30032C6.71353 5.64354 7.64051 5 8.7178 5C9.79509 5 10.7221 5.64354 11.1353 6.56717H19.9622C20.2375 6.56717 20.5014 6.67867 20.696 6.87724C20.8907 7.07581 21 7.34517 21 7.62599C21 7.90681 20.8907 8.17604 20.696 8.37461C20.5014 8.57318 20.2375 8.68481 19.9622 8.68481H11.1537Z" fill="#191919"/>
<path d="M13.2209 17.7059H4.03776C3.76253 17.7059 3.49857 17.5944 3.30395 17.3958C3.10933 17.1972 3 16.9279 3 16.6471C3 16.3662 3.10933 16.097 3.30395 15.8984C3.49857 15.6999 3.76253 15.5882 4.03776 15.5882H13.2209C13.6294 14.6533 14.5623 14 15.6477 14C16.7332 14 17.666 14.6533 18.0745 15.5882H19.9622C20.2375 15.5882 20.5014 15.6999 20.696 15.8984C20.8907 16.097 21 16.3662 21 16.6471C21 16.9279 20.8907 17.1972 20.696 17.3958C20.5014 17.5944 20.2375 17.7059 19.9622 17.7059H18.0745C17.666 18.6408 16.7332 19.2941 15.6477 19.2941C14.5623 19.2941 13.6294 18.6408 13.2209 17.7059Z" fill="#191919"/>
</svg>
