<svg width="24" height="24" viewBox="0 0 24 24" fill="none" xmlns="http://www.w3.org/2000/svg">
<path d="M19.927 7.11765H4.07303C3.78844 7.11765 3.51553 7.00614 3.3143 6.80757C3.11307 6.60901 3 6.33964 3 6.05882C3 5.77801 3.11307 5.50864 3.3143 5.31007C3.51553 5.1115 3.78844 5 4.07303 5H19.927C20.2116 5 20.4845 5.1115 20.6857 5.31007C20.887 5.50864 21 5.77801 21 6.05882C21 6.33964 20.887 6.60901 20.6857 6.80757C20.4845 7.00614 20.2116 7.11765 19.927 7.11765Z" fill="#191919"/>
<path d="M19.927 12.9412H4.07303C3.78844 12.9412 3.51553 12.8297 3.3143 12.6311C3.11307 12.4325 3 12.1632 3 11.8824C3 11.6015 3.11307 11.3323 3.3143 11.1337C3.51553 10.9352 3.78844 10.8235 4.07303 10.8235H19.927C20.2116 10.8235 20.4845 10.9352 20.6857 11.1337C20.887 11.3323 21 11.6015 21 11.8824C21 12.1632 20.887 12.4325 20.6857 12.6311C20.4845 12.8297 20.2116 12.9412 19.927 12.9412Z" fill="#191919"/>
<path d="M4.07303 18.7647H19.927C20.2116 18.7647 20.4845 18.6531 20.6857 18.4545C20.887 18.2559 21 17.9867 21 17.7059C21 17.4251 20.887 17.1557 20.6857 16.9571C20.4845 16.7586 20.2116 16.6471 19.927 16.6471H4.07303C3.78844 16.6471 3.51553 16.7586 3.3143 16.9571C3.11307 17.1557 3 17.4251 3 17.7059C3 17.9867 3.11307 18.2559 3.3143 18.4545C3.51553 18.6531 3.78844 18.7647 4.07303 18.7647Z" fill="#191919"/>
</svg>
