<svg width="24" height="24" viewBox="0 0 24 24" fill="none" xmlns="http://www.w3.org/2000/svg">
<path d="M12 7L12 10L6 6L12 2L12 5C13.5823 5 15.129 5.46919 16.4446 6.34824C17.7602 7.22729 18.7855 8.47672 19.391 9.93853C19.9965 11.4003 20.155 13.0089 19.8463 14.5607C19.5376 16.1126 18.7757 17.538 17.6569 18.6569C16.538 19.7757 15.1126 20.5376 13.5607 20.8463C12.0089 21.155 10.4003 20.9965 8.93853 20.391C7.47672 19.7855 6.22729 18.7602 5.34824 17.4446C4.46919 16.129 4 14.5823 4 13C4 12.4477 4.44772 12 5 12C5.55229 12 6 12.4477 6 13C6 14.1867 6.35189 15.3467 7.01118 16.3334C7.67047 17.3201 8.60754 18.0892 9.7039 18.5433C10.8003 18.9974 12.0067 19.1162 13.1705 18.8847C14.3344 18.6532 15.4035 18.0818 16.2426 17.2426C17.0818 16.4035 17.6532 15.3344 17.8847 14.1705C18.1162 13.0067 17.9974 11.8003 17.5433 10.7039C17.0892 9.60754 16.3201 8.67047 15.3334 8.01118C14.3467 7.35189 13.1867 7 12 7Z" fill="#191919"/>
</svg>
