<svg width="24" height="24" viewBox="0 0 24 24" fill="none" xmlns="http://www.w3.org/2000/svg">
<path d="M4 14.8812C3.9999 14.7601 4.02415 14.6401 4.07135 14.5283C4.11855 14.4164 4.18781 14.3148 4.27505 14.2294L11.3413 7.27082C11.4281 7.1849 11.5312 7.11674 11.6448 7.07026C11.7584 7.02378 11.8803 6.9999 12.0033 7C12.2501 7.00102 12.4865 7.09842 12.6605 7.27082L19.7268 14.2294C19.8134 14.3147 19.8821 14.416 19.929 14.5274C19.9759 14.6389 20 14.7583 20 14.8789C20 14.9996 19.9759 15.119 19.929 15.2305C19.8821 15.3419 19.8134 15.4432 19.7268 15.5285C19.6402 15.6137 19.5373 15.6814 19.4242 15.7276C19.311 15.7737 19.1897 15.7975 19.0672 15.7975C18.9447 15.7975 18.8235 15.7737 18.7103 15.7276C18.5972 15.6814 18.4944 15.6137 18.4077 15.5285L12.0033 9.21703L5.5942 15.5285C5.46408 15.6576 5.29793 15.7458 5.11681 15.7818C4.9357 15.8179 4.74777 15.8 4.57696 15.7307C4.40614 15.6613 4.2601 15.5436 4.15738 15.3923C4.05467 15.2411 3.99985 15.0632 4 14.8812Z" fill="#191919"/>
</svg>
