<svg width="24" height="24" viewBox="0 0 24 24" fill="none" xmlns="http://www.w3.org/2000/svg">
<path fill-rule="evenodd" clip-rule="evenodd" d="M12 4C7.58172 4 4 7.58172 4 12C4 16.4183 7.58172 20 12 20C16.4183 20 20 16.4183 20 12C20 7.58172 16.4183 4 12 4ZM2 12C2 6.47715 6.47715 2 12 2C17.5228 2 22 6.47715 22 12C22 17.5228 17.5228 22 12 22C6.47715 22 2 17.5228 2 12ZM10.1234 7.11043C10.0576 6.51807 10.5213 6 11.1173 6H12.8827C13.4787 6 13.9424 6.51807 13.8766 7.11043L13.0988 14.1104C13.0426 14.6169 12.6145 15 12.105 15H11.895C11.3855 15 10.9574 14.6169 10.9012 14.1104L10.1234 7.11043ZM12 18C12.5523 18 13 17.5523 13 17C13 16.4477 12.5523 16 12 16C11.4477 16 11 16.4477 11 17C11 17.5523 11.4477 18 12 18Z" fill="#191919"/>
</svg>
