<svg width="120" height="24" viewBox="0 0 120 24" fill="none" xmlns="http://www.w3.org/2000/svg">
<path d="M16.6202 4.18872H11.6521C10.6309 4.18872 10 5.05617 10 5.86053V17.9654C10 19.0142 10.8398 19.6411 11.6521 19.6411C12.5905 19.6411 13.2174 18.9669 13.2174 17.9654V15.3196H16.6163C20.3975 15.3196 22.1167 12.4768 22.1167 9.83896C22.1206 7.11833 20.4015 4.18872 16.6202 4.18872ZM19.0096 9.83896C19.0096 11.1244 17.8938 12.2481 16.6202 12.2481H13.2214V7.27999H16.6202C17.9371 7.27999 19.0096 8.42738 19.0096 9.83896Z" fill="#191919"/>
<path d="M30.0972 4.32764C29.2889 4.32764 28.4688 4.85599 28.4688 5.86538V18.1437C28.4688 19.2044 29.2968 19.6893 30.0656 19.6893C30.8739 19.6893 31.6901 19.157 31.6901 18.1437V5.86144C31.6901 4.80868 30.8621 4.32764 30.0972 4.32764Z" fill="#191919"/>
<path d="M50.3993 15.1901C49.9735 15.1309 49.5555 15.2413 49.2164 15.5055C48.2268 16.3848 47.1425 16.8343 45.9872 16.8343C42.5095 16.8343 41.2754 14.1807 41.2754 11.9056C41.2754 9.70149 42.5095 7.1307 45.9872 7.1307C47.0675 7.1307 47.9705 7.31996 48.8616 8.25838C49.4649 8.86165 50.4703 8.89319 51.113 8.32146C51.4206 8.00209 51.5822 7.58413 51.5704 7.13858C51.5586 6.69303 51.3654 6.26325 51.0341 5.95964C49.4412 4.5875 47.931 4 45.9872 4C40.6405 4 38.2511 7.97449 38.2511 11.9095C38.2511 17.7254 42.2493 19.7994 45.9872 19.7994C47.5525 19.7994 49.5634 19.6022 51.2195 18.0645C52.0317 17.2522 51.8858 16.3611 51.4758 15.7933C51.2352 15.474 50.8331 15.2492 50.3993 15.1901Z" fill="#191919"/>
<path d="M69.8381 15.1901C69.4123 15.1309 68.9944 15.2413 68.6553 15.5055C67.6656 16.3848 66.5813 16.8343 65.426 16.8343C61.9483 16.8343 60.7142 14.1807 60.7142 11.9056C60.7142 9.70149 61.9483 7.1307 65.426 7.1307C66.5064 7.1307 67.4093 7.31996 68.3004 8.25838C68.9037 8.86165 69.9091 8.89319 70.5518 8.32146C70.8594 8.00209 71.021 7.58413 71.0092 7.13858C70.9974 6.69303 70.8042 6.26325 70.473 5.95964C68.88 4.5875 67.3699 4 65.426 4C60.0794 4 57.6899 7.97449 57.6899 11.9095C57.6899 17.7254 61.6881 19.7994 65.426 19.7994C66.9913 19.7994 69.0022 19.6022 70.6583 18.0645C71.4705 17.2522 71.3246 16.3611 70.9146 15.7933C70.6741 15.474 70.2719 15.2492 69.8381 15.1901Z" fill="#191919"/>
<path d="M89.1822 4.38285C88.2713 4.38285 87.5301 5.06498 87.5301 5.90877V10.4037H80.902V5.90482C80.902 5.03738 80.2553 4.37891 79.3997 4.37891C78.3706 4.37891 77.6806 4.99006 77.6806 5.90482V18.1161C77.6806 19.0269 78.3706 19.642 79.3997 19.642C80.2553 19.642 80.902 18.9875 80.902 18.1161V13.6014H87.5301V18.1201C87.5301 18.9599 88.2713 19.646 89.1822 19.646C90.0378 19.646 90.7041 18.9757 90.7041 18.1201V5.90482C90.7081 5.03738 90.0536 4.38285 89.1822 4.38285Z" fill="#191919"/>
<path d="M110.454 4.72927C110.174 4.4572 109.792 4.30737 109.378 4.30737C108.581 4.30737 107.738 4.89881 107.738 5.99101V13.7744C107.738 14.7404 107.375 15.5408 106.693 16.0928C106.082 16.5857 105.25 16.8578 104.343 16.8578C102.576 16.8578 100.786 15.7971 100.786 13.7744V5.99101C100.786 5.47448 100.617 5.04076 100.293 4.73715C100.009 4.46509 99.6231 4.3192 99.2091 4.3192C98.4047 4.3192 97.5885 4.89487 97.5885 5.99495V13.7783C97.5885 16.775 99.6783 20.0003 104.264 20.0003C108.85 20.0003 110.939 16.775 110.939 13.7783V5.99101C110.939 5.47054 110.774 5.03287 110.454 4.72927Z" fill="#191919"/>
</svg>
