<svg width="240" height="268" viewBox="0 0 240 268" fill="none" xmlns="http://www.w3.org/2000/svg">
<g clip-path="url(#clip0_815_24252)">
<path fill-rule="evenodd" clip-rule="evenodd" d="M208.042 73.8315C208.044 77.4637 207.812 81.0923 207.347 84.6947C207.535 85.6675 207.398 86.6752 206.956 87.562C204.616 102.849 197.023 116.842 185.482 127.137C172.56 138.657 154.674 145.263 136.421 145.263H113.318V160.295C113.318 178.206 100.8 191.204 83.5453 191.204C79.4897 191.23 75.4697 190.446 71.7208 188.899C67.9718 187.352 64.5691 185.072 61.7119 182.194C58.8548 179.316 56.6005 175.896 55.0811 172.136C53.5617 168.376 52.8076 164.35 52.8632 160.295V74.9936C52.616 74.1697 52.616 73.2913 52.8632 72.4673V46.042C52.8632 33.9817 57.6541 22.4153 66.1821 13.8873C74.7101 5.35932 86.2765 0.568359 98.3368 0.568359H136.421C170.918 0.568359 208.042 23.5199 208.042 73.8315ZM136.421 9.6631H98.3368C88.6916 9.67313 79.4443 13.5091 72.6241 20.3293C65.8039 27.1495 61.9679 36.3968 61.9579 46.042V72.5684C65.0653 76.661 75.7011 89.1284 90.7958 90.9473C101.975 92.3747 113.558 87.6631 125.192 77.0526C137.533 65.6841 150.859 60.3789 164.88 61.1873C179.659 62.0462 191.747 69.6631 198.985 75.562V73.8315C198.985 42.9347 179.368 9.6631 136.421 9.6631ZM108.821 136.168H136.421C164.046 136.168 192 119.242 197.76 86.741C193.352 82.3957 180.442 71.141 164.135 70.2315C152.766 69.5747 141.739 74.122 131.293 83.6842C119.242 94.7242 106.939 100.295 94.6611 100.295C92.9721 100.289 91.2849 100.184 89.6084 99.9789C77.6084 98.5263 68.2105 91.9073 61.9579 86.0589V160.295C61.9579 171.032 70.0421 182.147 83.5832 182.147C95.7726 182.147 104.299 173.154 104.299 160.295V140.703C104.297 140.108 104.413 139.519 104.64 138.969C104.866 138.419 105.199 137.919 105.619 137.497C106.039 137.076 106.538 136.742 107.088 136.514C107.637 136.286 108.226 136.168 108.821 136.168ZM141.891 256.269C141.395 256.197 140.89 256.225 140.406 256.353C139.922 256.481 139.468 256.706 139.074 257.015C137.003 259.018 134.249 260.16 131.368 260.211C123.107 260.211 120.177 253.895 120.177 248.514C120.177 243.133 123.107 237.145 131.368 237.145C132.634 237.048 133.905 237.239 135.086 237.702C136.267 238.166 137.328 238.891 138.189 239.823C138.898 240.515 139.841 240.915 140.831 240.943C141.822 240.971 142.786 240.626 143.533 239.975C143.897 239.605 144.182 239.164 144.368 238.679C144.555 238.195 144.641 237.677 144.619 237.158C144.606 236.63 144.487 236.11 144.27 235.628C144.053 235.147 143.742 234.713 143.356 234.354C140.117 231.303 135.817 229.635 131.368 229.705C118.674 229.705 112.989 239.141 112.989 248.488C112.989 262.307 122.476 267.221 131.368 267.221C135.082 267.221 139.857 266.754 143.785 263.103C144.553 262.45 145.043 261.528 145.155 260.526C145.268 259.524 144.995 258.517 144.392 257.709C143.773 256.927 142.878 256.411 141.891 256.269ZM94.2499 256.353C94.7341 256.225 95.2392 256.197 95.7347 256.269C96.7404 256.399 97.6559 256.915 98.2863 257.71C98.8897 258.517 99.1628 259.524 99.0502 260.526C98.9376 261.528 98.4477 262.45 97.68 263.103C93.7516 266.754 89.04 267.221 85.2505 267.221C76.3705 267.221 66.8842 262.307 66.8842 248.488C66.8842 239.141 72.6189 229.705 85.2505 229.705C89.7027 229.636 94.0068 231.303 97.2505 234.354C97.6372 234.713 97.9481 235.147 98.165 235.628C98.3819 236.11 98.5004 236.63 98.5137 237.158C98.5353 237.677 98.45 238.195 98.2632 238.679C98.0763 239.164 97.7918 239.605 97.4274 239.975C96.6807 240.626 95.7163 240.971 94.7262 240.943C93.7361 240.915 92.7928 240.515 92.0842 239.823C91.2204 238.891 90.1571 238.166 88.9738 237.702C87.7905 237.239 86.5177 237.048 85.2505 237.145C77.0021 237.145 74.0716 243.133 74.0716 248.514C74.0716 253.895 77.0021 260.211 85.2505 260.211C88.1179 260.151 90.8567 259.009 92.9179 257.015C93.3126 256.706 93.7657 256.481 94.2499 256.353ZM15.5116 230.135H3.71369C2.66615 230.145 1.6651 230.569 0.929092 231.314C0.193082 232.06 -0.218115 233.066 -0.214731 234.114V262.863C-0.223131 263.384 -0.127631 263.901 0.0661841 264.384C0.259999 264.867 0.548236 265.307 0.914032 265.677C1.27983 266.048 1.71584 266.342 2.19656 266.542C2.67727 266.742 3.19304 266.844 3.71369 266.842C4.22779 266.853 4.73841 266.755 5.21231 266.556C5.68622 266.356 6.11279 266.059 6.46429 265.684C6.81578 265.308 7.08432 264.863 7.25243 264.377C7.42054 263.891 7.48445 263.375 7.44001 262.863V256.547H15.5116C24.4926 256.547 28.5726 249.802 28.5726 243.537C28.5726 237.095 24.4926 230.135 15.5116 230.135ZM15.5116 249.284H7.44001V237.474H15.5116C17.0305 237.544 18.464 238.197 19.514 239.297C20.5641 240.396 21.15 241.858 21.15 243.379C21.15 244.899 20.5641 246.362 19.514 247.461C18.464 248.561 17.0305 249.214 15.5116 249.284ZM47.52 230.463C47.0229 230.434 46.525 230.507 46.057 230.677C45.589 230.847 45.1608 231.111 44.7987 231.453C44.4367 231.795 44.1484 232.208 43.9517 232.665C43.7549 233.123 43.6539 233.616 43.6547 234.114V263.267C43.6398 263.764 43.7285 264.258 43.9151 264.718C44.1018 265.179 44.3824 265.595 44.7389 265.941C45.0955 266.287 45.5202 266.555 45.986 266.727C46.4518 266.9 46.9484 266.973 47.4442 266.943C47.9369 266.96 48.4279 266.878 48.8878 266.7C49.3478 266.523 49.7672 266.255 50.1211 265.912C50.4749 265.568 50.7558 265.157 50.947 264.703C51.1382 264.249 51.2357 263.76 51.2337 263.267V234.114C51.2463 233.625 51.1583 233.14 50.9753 232.687C50.7923 232.234 50.5181 231.824 50.1699 231.482C49.8216 231.139 49.4066 230.872 48.9508 230.697C48.4949 230.522 48.0079 230.442 47.52 230.463ZM185.132 231.604C185.865 230.928 186.835 230.568 187.832 230.602C188.31 230.59 188.786 230.675 189.23 230.852C189.675 231.029 190.079 231.295 190.417 231.633C190.756 231.97 191.023 232.373 191.202 232.817C191.381 233.261 191.467 233.736 191.457 234.215V263.267C191.462 263.745 191.372 264.219 191.191 264.661C191.011 265.103 190.744 265.504 190.406 265.842C190.069 266.18 189.667 266.447 189.225 266.627C188.783 266.807 188.309 266.898 187.832 266.893C186.833 266.927 185.861 266.565 185.127 265.886C184.394 265.207 183.959 264.266 183.916 263.267V252.543H168.177V263.267C168.191 263.743 168.108 264.216 167.934 264.659C167.76 265.102 167.498 265.505 167.164 265.843C166.829 266.182 166.43 266.45 165.99 266.63C165.55 266.81 165.078 266.9 164.602 266.893C162.164 266.893 160.522 265.44 160.522 263.267V234.215C160.522 232.055 162.164 230.602 164.602 230.602C165.077 230.593 165.549 230.681 165.989 230.86C166.429 231.039 166.829 231.305 167.163 231.643C167.497 231.981 167.759 232.383 167.934 232.825C168.108 233.267 168.191 233.74 168.177 234.215V244.901H183.916V234.215C183.962 233.218 184.399 232.28 185.132 231.604ZM238.358 231.423C237.676 230.778 236.771 230.421 235.832 230.425C235.31 230.42 234.793 230.52 234.311 230.72C233.829 230.92 233.393 231.215 233.028 231.588C232.663 231.961 232.378 232.404 232.189 232.89C232 233.376 231.911 233.895 231.928 234.417V252.909C231.959 253.96 231.747 255.003 231.309 255.958C230.871 256.914 230.218 257.755 229.402 258.417C227.798 259.631 225.83 260.267 223.819 260.223C219.625 260.223 215.381 257.697 215.381 252.909V234.417C215.403 233.866 215.309 233.316 215.107 232.803C214.905 232.29 214.598 231.824 214.206 231.436C213.522 230.794 212.618 230.437 211.68 230.438C211.161 230.429 210.645 230.526 210.165 230.724C209.685 230.923 209.251 231.218 208.89 231.591C208.528 231.964 208.248 232.407 208.065 232.893C207.882 233.38 207.801 233.898 207.827 234.417V252.909C207.827 260.021 212.792 267.688 223.68 267.688C234.568 267.688 239.533 260.021 239.533 252.909V234.417C239.552 233.864 239.458 233.313 239.256 232.798C239.054 232.283 238.748 231.815 238.358 231.423Z" fill="url(#paint0_linear_815_24252)"/>
</g>
<defs>
<linearGradient id="paint0_linear_815_24252" x1="21.1033" y1="205.989" x2="221.211" y2="88.4367" gradientUnits="userSpaceOnUse">
<stop stop-color="#FFAF3C"/>
<stop offset="0.5" stop-color="#73AA8C"/>
<stop offset="1" stop-color="#009BCD"/>
</linearGradient>
<clipPath id="clip0_815_24252">
<rect width="240" height="267.789" fill="white"/>
</clipPath>
</defs>
</svg>
