<svg width="25" height="25" viewBox="0 0 25 25" fill="none" xmlns="http://www.w3.org/2000/svg">
<path fill-rule="evenodd" clip-rule="evenodd" d="M11.3552 6.33442C9.67221 4.55511 6.96809 4.55519 5.28516 6.33467C3.57177 8.14584 3.57167 11.1044 5.28506 12.9156L11.7734 19.7764C12.1679 20.1936 12.832 20.1936 13.2265 19.7764L19.2975 13.3569L19.7153 12.916C21.4279 11.1048 21.4281 8.14605 19.7153 6.33497C18.0324 4.55551 15.3281 4.55532 13.6444 6.33497L12.4997 7.54536L11.3552 6.33442ZM12.5001 4.65516C10.0119 2.35086 6.20396 2.45258 3.83217 4.96032L12.5001 4.65516ZM12.5001 4.65516C14.9889 2.35122 18.7966 2.45291 21.1684 4.96073C23.6106 7.54298 23.6106 11.708 21.1684 14.2902L20.7492 14.7326L14.6796 21.1506C13.496 22.4022 11.5039 22.4021 10.3203 21.1506L3.83217 14.29C1.38944 11.7078 1.38943 7.54257 3.83217 4.96032" fill="#191919"/>
</svg>
