<svg width="25" height="25" viewBox="0 0 25 25" fill="none" xmlns="http://www.w3.org/2000/svg">
<path d="M13.0418 11.4584V11.9584H13.5418H17.7085C18.0077 11.9584 18.2502 12.2009 18.2502 12.5C18.2502 12.7992 18.0077 13.0417 17.7085 13.0417H13.5418H13.0418V13.5417V17.7084C13.0418 18.0075 12.7993 18.25 12.5002 18.25C12.201 18.25 11.9585 18.0075 11.9585 17.7084V13.5417V13.0417H11.4585H7.29183C6.99268 13.0417 6.75016 12.7992 6.75016 12.5C6.75016 12.2009 6.99268 11.9584 7.29183 11.9584H11.4585H11.9585V11.4584V7.29171C11.9585 6.99255 12.201 6.75004 12.5002 6.75004C12.7993 6.75004 13.0418 6.99255 13.0418 7.29171V11.4584ZM2.5835 12.5C2.5835 7.02322 7.02334 2.58337 12.5002 2.58337C17.977 2.58337 22.4168 7.02322 22.4168 12.5C22.4168 17.9769 17.977 22.4167 12.5002 22.4167C7.02334 22.4167 2.5835 17.9769 2.5835 12.5ZM12.5002 3.66671C7.62165 3.66671 3.66683 7.62153 3.66683 12.5C3.66683 17.3786 7.62165 21.3334 12.5002 21.3334C17.3787 21.3334 21.3335 17.3786 21.3335 12.5C21.3335 7.62153 17.3787 3.66671 12.5002 3.66671Z" fill="#191919" stroke="#191919"/>
</svg>
