<svg width="25" height="25" viewBox="0 0 25 25" fill="none" xmlns="http://www.w3.org/2000/svg">
<path fill-rule="evenodd" clip-rule="evenodd" d="M5.65217 19.3478C3.63513 19.3478 2 17.7127 2 15.6957V5.65217C2 3.63513 3.63513 2 5.65217 2H15.6957C17.7127 2 19.3478 3.63513 19.3478 5.65217C21.3649 5.65217 23 7.28731 23 9.30435V19.3478C23 21.3649 21.3649 23 19.3478 23H9.30435C7.28731 23 5.65217 21.3649 5.65217 19.3478ZM3.82609 5.65217C3.82609 4.64365 4.64365 3.82609 5.65217 3.82609H15.6957C16.7042 3.82609 17.5217 4.64365 17.5217 5.65217H9.30435C7.28731 5.65217 5.65217 7.28731 5.65217 9.30435L5.65217 17.5217C4.64365 17.5217 3.82609 16.7042 3.82609 15.6957V5.65217ZM7.47826 9.30435C7.47826 8.29583 8.29583 7.47826 9.30435 7.47826H19.3478C20.3563 7.47826 21.1739 8.29583 21.1739 9.30435V19.3478C21.1739 20.3563 20.3563 21.1739 19.3478 21.1739H9.30435C8.29583 21.1739 7.47826 20.3563 7.47826 19.3478V9.30435Z" fill="#191919"/>
</svg>
