<svg width="25" height="25" viewBox="0 0 25 25" fill="none" xmlns="http://www.w3.org/2000/svg">
<path fill-rule="evenodd" clip-rule="evenodd" d="M13.7239 13.6378L15.6801 11.6838C16.4978 10.8671 17 9.74412 17 8.5C17 6.01472 14.9853 4 12.5 4C10.0147 4 8 6.01472 8 8.5C8 9.74412 8.50224 10.8671 9.31985 11.6838L11.2761 13.6378L8.80797 14.8841C7.95295 15.3159 7.16812 15.8966 6.48839 16.6058C5.69078 17.4379 5.05382 18.4303 4.61783 19.5285C4.42848 20.0054 4.27883 20.4978 4.17011 21H20.8299C20.7212 20.4978 20.5715 20.0054 20.3822 19.5285C19.9462 18.4303 19.3092 17.4379 18.5116 16.6058C17.8319 15.8966 17.047 15.3159 16.192 14.8841L13.7239 13.6378ZM17.0935 13.0988C17.6998 13.405 18.2758 13.7707 18.8141 14.1906C19.2168 14.5047 19.5983 14.8492 19.9555 15.2218C20.9345 16.2433 21.7112 17.4559 22.241 18.7905C22.6425 19.8018 22.8964 20.8681 22.9958 21.954C23.0486 22.5299 22.594 23 22.0395 23H2.96054C2.40597 23 1.95143 22.5299 2.00417 21.954C2.10359 20.8681 2.35745 19.8018 2.75897 18.7905C3.28884 17.4559 4.06548 16.2433 5.04454 15.2218C5.40168 14.8492 5.78321 14.5047 6.18589 14.1906C6.72416 13.7707 7.30025 13.405 7.90645 13.0988C7.42903 12.622 7.02542 12.0712 6.71422 11.4652C6.25766 10.5762 6 9.56817 6 8.5C6 4.91015 8.91015 2 12.5 2C16.0899 2 19 4.91015 19 8.5C19 9.56817 18.7423 10.5762 18.2858 11.4652C17.9746 12.0712 17.571 12.622 17.0935 13.0988Z" fill="#191919"/>
</svg>
