<svg width="25" height="25" viewBox="0 0 25 25" fill="none" xmlns="http://www.w3.org/2000/svg">
<path d="M7.42007 15.3741C7.1588 15.3741 6.89775 15.3588 6.63825 15.3284C3.2724 14.907 1.25188 11.8713 1.16558 11.7393C1.01814 11.5137 0.96635 11.2389 1.02157 10.9752C1.07679 10.7114 1.23451 10.4804 1.46003 10.333C1.68556 10.1856 1.96042 10.1338 2.22414 10.189C2.48786 10.2442 2.71884 10.4018 2.86627 10.6274C2.86627 10.6274 4.47559 13.0185 6.92763 13.313C8.45064 13.4957 9.99903 12.8459 11.5931 11.3889C13.4461 9.68818 15.4616 8.8861 17.5684 9.01301C21.183 9.22116 23.7061 12.0895 23.8076 12.2114C23.9559 12.4165 24.0221 12.6696 23.9935 12.9211C23.9648 13.1725 23.8432 13.4043 23.6525 13.5708C23.4619 13.7373 23.216 13.8265 22.9629 13.8211C22.7099 13.8157 22.468 13.7159 22.2846 13.5414C22.2846 13.5414 20.1981 11.1909 17.4465 11.0386C15.9235 10.9523 14.4005 11.5768 12.974 12.8866C11.1362 14.5213 9.28322 15.3741 7.42007 15.3741Z" fill="#191919"/>
</svg>
