<svg width="24" height="24" viewBox="0 0 24 24" fill="none" xmlns="http://www.w3.org/2000/svg">
<path d="M4.16 20.0599C3.93504 20.06 3.71661 19.9843 3.54001 19.845C3.40207 19.7361 3.29524 19.5928 3.23029 19.4296C3.16533 19.2663 3.14454 19.0888 3.17001 18.9149L3.64499 15.6699C2.59218 14.4056 2.01078 12.8151 2 11.1699C2 6.66992 6.5 3 12 3C17.5 3 22 6.66492 22 11.1699C22 15.6749 17.5 19.335 12 19.335C10.6282 19.338 9.26633 19.1029 7.97501 18.64L4.535 19.98C4.41633 20.0306 4.28899 20.0577 4.16 20.0599Z" fill="#191919"/>
</svg>
