<svg width="24" height="24" viewBox="0 0 24 24" fill="none" xmlns="http://www.w3.org/2000/svg">
<path fill-rule="evenodd" clip-rule="evenodd" d="M6.36861 15.8482C7.01379 16.0304 7.68379 16.128 8.36106 16.1361C9.75281 16.0669 11.1206 15.7536 12.3992 15.2111L12.4548 15.1919C14.43 14.5114 16.0005 13.9703 18.2392 15.2111C18.418 15.3121 18.6208 15.3653 18.8273 15.3651C19.0337 15.3649 19.2365 15.3114 19.4151 15.21C19.5937 15.1086 19.7418 14.963 19.8445 14.7877C19.9472 14.6123 20.0008 14.4135 20 14.2115V4.03698C20.0008 3.83451 19.947 3.63549 19.8439 3.45995C19.7408 3.2844 19.5922 3.13857 19.4131 3.03734C16.2143 1.26786 13.7726 2.13538 11.6127 2.90522L11.5734 2.91875C9.59051 3.60185 8.01757 4.14373 5.77267 2.90522C5.59388 2.80417 5.39102 2.75101 5.18457 2.75121C4.97812 2.75141 4.77536 2.80495 4.59678 2.90634C4.41819 3.00773 4.27009 3.15349 4.16739 3.3288C4.0647 3.50411 4.01104 3.70277 4.01186 3.90485V3.91616C4.00401 3.97095 4 4.02652 4 4.08251V20.822C4 21.1344 4.12477 21.4341 4.34687 21.655C4.56898 21.8759 4.87021 22 5.18431 22C5.4984 22 5.79964 21.8759 6.02174 21.655C6.24384 21.4341 6.36861 21.1344 6.36861 20.822V15.8482ZM6.36861 13.3989C8.3128 14.2365 9.78202 13.7151 11.5951 13.0682C13.4146 12.419 15.2752 11.764 17.6464 12.4592V4.73786C15.6956 3.88346 14.2242 4.40843 12.4095 5.05594L12.3992 5.05962C10.585 5.70691 8.72995 6.35996 6.36861 5.67468V13.3989Z" fill="#191919"/>
</svg>
