<svg width="24" height="24" viewBox="0 0 24 24" fill="none" xmlns="http://www.w3.org/2000/svg">
<path d="M14.561 10.4366C12.657 11.1445 11.1445 12.657 10.4366 14.561C9.575 14.0338 9 13.0841 9 12C9 10.3431 10.3431 9 12 9C13.0841 9 14.0338 9.575 14.561 10.4366Z" fill="#191919"/>
<path fill-rule="evenodd" clip-rule="evenodd" d="M8.99951 3.75061C9.37906 3.27618 9.95368 3 10.5612 3H13.4388C14.0463 3 14.6209 3.27618 15.0005 3.75061L16 5H20C21.1046 5 22 5.89543 22 7V12.101C20.7295 10.8045 18.9587 10 17 10C16.8621 10 16.7251 10.004 16.5891 10.0119C15.8203 8.23962 14.0549 7 12 7C9.23858 7 7 9.23858 7 12C7 14.0549 8.23962 15.8203 10.0119 16.5891C10.004 16.7251 10 16.8621 10 17C10 17.695 10.1013 18.3663 10.2899 19H4C2.89543 19 2 18.1046 2 17V7C2 5.89543 2.89543 5 4 5H8L8.99951 3.75061ZM20 8C20 8.55228 19.5523 9 19 9C18.4477 9 18 8.55228 18 8C18 7.44772 18.4477 7 19 7C19.5523 7 20 7.44772 20 8Z" fill="#191919"/>
<path fill-rule="evenodd" clip-rule="evenodd" d="M17 22C19.7614 22 22 19.7614 22 17C22 14.2386 19.7614 12 17 12C14.2386 12 12 14.2386 12 17C12 19.7614 14.2386 22 17 22ZM18 14V16H20V18H18V20H16V18H14V16H16V14H18Z" fill="#191919"/>
</svg>
