<svg width="24" height="24" viewBox="0 0 24 24" fill="none" xmlns="http://www.w3.org/2000/svg">
<path fill-rule="evenodd" clip-rule="evenodd" d="M6.45938 17.2559C7.73943 18.1112 9.24436 18.5676 10.7839 18.5676C12.5383 18.5676 14.2317 17.9753 15.5967 16.9014L19.3328 20.7086C19.7091 21.0922 20.3252 21.098 20.7087 20.7216C21.0922 20.3452 21.098 19.7292 20.7217 19.3457L16.9639 15.5163C17.9983 14.1655 18.5677 12.504 18.5677 10.7838C18.5677 9.24428 18.1112 7.73946 17.2559 6.45941C16.4006 5.17936 15.1849 4.18162 13.7626 3.59248C12.3403 3.00334 10.7752 2.84924 9.2653 3.14958C7.75538 3.44992 6.36843 4.19117 5.27984 5.27976C4.19125 6.36835 3.44991 7.75536 3.14957 9.26528C2.84923 10.7752 3.00337 12.3403 3.59251 13.7626C4.18166 15.1849 5.17933 16.4006 6.45938 17.2559ZM7.5405 5.9298C8.50054 5.28832 9.62924 4.94589 10.7839 4.94589C12.3322 4.94589 13.8171 5.56104 14.9119 6.65586C16.0067 7.75067 16.6218 9.23548 16.6218 10.7838C16.6218 11.9384 16.2794 13.0672 15.6379 14.0272C14.9964 14.9873 14.0847 15.7355 13.0179 16.1774C11.9512 16.6192 10.7774 16.7348 9.64494 16.5096C8.5125 16.2843 7.47229 15.7283 6.65584 14.9118C5.8394 14.0954 5.28339 13.0551 5.05813 11.9227C4.83288 10.7903 4.9485 9.61653 5.39036 8.5498C5.83221 7.48306 6.58047 6.57128 7.5405 5.9298Z" fill="#191919"/>
</svg>
