<svg width="24" height="24" viewBox="0 0 24 24" fill="none" xmlns="http://www.w3.org/2000/svg">
<path d="M6.48334 20.9953C6.25408 20.9961 6.03049 20.9245 5.8448 20.791C5.67786 20.6709 5.54895 20.506 5.47321 20.3156C5.39748 20.1252 5.37807 19.9172 5.41729 19.7163L6.37511 14.1758L2.32195 10.2531C2.18189 10.1158 2.08219 9.94309 2.03356 9.75372C1.98493 9.56434 1.98922 9.36543 2.04597 9.17829C2.10829 8.98801 2.22286 8.8187 2.37679 8.68958C2.53071 8.56046 2.71788 8.4766 2.91721 8.44739L8.52345 7.63594L11.0289 2.59537C11.1187 2.41652 11.2569 2.26601 11.428 2.16085C11.5991 2.05568 11.7964 2 11.9976 2C12.1988 2 12.3961 2.05568 12.5672 2.16085C12.7383 2.26601 12.8765 2.41652 12.9662 2.59537L15.4717 7.63594L21.078 8.44739C21.2773 8.47703 21.4643 8.5614 21.618 8.6909C21.7717 8.82039 21.8859 8.98991 21.9477 9.18039C22.0096 9.37087 22.0167 9.57468 21.9682 9.76894C21.9197 9.9632 21.8175 10.1401 21.6732 10.2798L17.6201 14.2027L18.5779 19.7432C18.6121 19.9407 18.59 20.1439 18.514 20.3296C18.438 20.5154 18.3112 20.6764 18.148 20.7943C17.9847 20.9123 17.7915 20.9825 17.5902 20.9971C17.3888 21.0118 17.1874 20.9702 17.0086 20.8771L11.9976 18.26L6.98661 20.8771C6.83094 20.9563 6.65825 20.9969 6.48334 20.9953ZM11.9976 15.9654C12.173 15.9655 12.3457 16.0079 12.5008 16.0889L16.0724 17.9536L15.3906 14.004C15.3612 13.832 15.3745 13.6555 15.4292 13.4898C15.4839 13.3241 15.5783 13.1742 15.7044 13.0528L18.5941 10.2531L14.6005 9.67802C14.4267 9.65352 14.2614 9.58734 14.1191 9.48529C13.9767 9.38324 13.8615 9.24836 13.7834 9.09223L11.9976 5.49718L10.2118 9.09223C10.1337 9.24836 10.0185 9.38324 9.8761 9.48529C9.73374 9.58734 9.56852 9.65352 9.39469 9.67802L5.40106 10.2531L8.29076 13.0528C8.41685 13.1742 8.51132 13.3241 8.566 13.4898C8.62068 13.6555 8.63393 13.832 8.60462 14.004L7.92278 17.9536L11.4943 16.0889C11.6505 16.0116 11.8231 15.9729 11.9976 15.9761V15.9654Z" fill="#191919"/>
</svg>
