<svg width="24" height="24" viewBox="0 0 24 24" fill="none" xmlns="http://www.w3.org/2000/svg">
<path fill-rule="evenodd" clip-rule="evenodd" d="M12 21C16.9706 21 21 16.9706 21 12C21 7.02944 16.9706 3 12 3C7.02944 3 3 7.02944 3 12C3 16.9706 7.02944 21 12 21ZM9.82277 6.74919C10.215 6.00826 10.6403 5.51917 11.0526 5.23026V11.0526H8.71533C8.82847 9.34392 9.24212 7.84596 9.82277 6.74919ZM6.81697 11.0526C6.92579 9.18851 7.35324 7.4742 8.02087 6.11261C6.38185 7.22254 5.23097 8.99892 4.95734 11.0526H6.81697ZM4.95734 12.9474H6.81697C6.92579 14.8115 7.35324 16.5258 8.02087 17.8874C6.38185 16.7775 5.23097 15.0011 4.95734 12.9474ZM8.71532 12.9474H11.0526V18.7697C10.6403 18.4808 10.215 17.9917 9.82277 17.2508C9.24212 16.154 8.82847 14.6561 8.71532 12.9474ZM12.9474 12.9474V18.7697C13.3597 18.4808 13.785 17.9917 14.1772 17.2508C14.7579 16.154 15.1715 14.6561 15.2847 12.9474H12.9474ZM17.183 12.9474C17.0742 14.8115 16.6468 16.5258 15.9791 17.8874C17.6181 16.7775 18.769 15.0011 19.0427 12.9474H17.183ZM19.0427 11.0526H17.183C17.0742 9.18851 16.6468 7.4742 15.9791 6.11261C17.6181 7.22254 18.769 8.99892 19.0427 11.0526ZM15.2847 11.0526H12.9474V5.23026C13.3597 5.51917 13.785 6.00826 14.1772 6.74919C14.7579 7.84596 15.1715 9.34392 15.2847 11.0526Z" fill="#191919"/>
</svg>
